<svg width="46" height="23" viewBox="0 0 46 23" fill="none" xmlns="http://www.w3.org/2000/svg">
<path d="M2 10C1.17157 10 0.5 10.6716 0.5 11.5C0.5 12.3284 1.17157 13 2 13V10ZM45.3407 12.5607C45.9264 11.9749 45.9264 11.0251 45.3407 10.4393L35.7947 0.893398C35.2089 0.307611 34.2592 0.307611 33.6734 0.893398C33.0876 1.47919 33.0876 2.42893 33.6734 3.01472L42.1587 11.5L33.6734 19.9853C33.0876 20.5711 33.0876 21.5208 33.6734 22.1066C34.2592 22.6924 35.2089 22.6924 35.7947 22.1066L45.3407 12.5607ZM2 13H44.28V10H2V13Z" fill="black"/>
</svg>
