<svg width="344" height="421" viewBox="0 0 344 421" fill="none" xmlns="http://www.w3.org/2000/svg">
<g filter="url(#filter0_b_111_6)">
<circle cx="210.193" cy="210.193" r="200" transform="rotate(3 210.193 210.193)" fill="url(#paint0_radial_111_6)"/>
</g>
<path d="M93.1609 198.351C93.7824 186.493 103.899 177.384 115.757 178.005L303.998 187.871C317.787 188.593 328.378 200.356 327.656 214.145L326.714 232.12L113.506 220.946C101.648 220.325 92.5395 210.208 93.1609 198.351Z" fill="#1E1E1E"/>
<path d="M112.623 200.747L116.212 205.066L113.905 204.945L111.035 201.235L110.849 204.785L109.142 204.696L109.723 193.611L111.43 193.7L111.093 200.141L114.278 196.688L116.645 196.812L112.623 200.747ZM125.228 201.198C125.211 201.507 125.177 201.786 125.124 202.033L118.817 201.703C118.833 202.365 119.05 202.907 119.468 203.329C119.887 203.752 120.415 203.98 121.054 204.013C121.973 204.061 122.642 203.711 123.062 202.962L124.905 203.058C124.615 203.804 124.128 204.405 123.443 204.859C122.769 205.305 121.948 205.502 120.979 205.451C120.19 205.41 119.49 205.198 118.879 204.815C118.279 204.423 117.816 203.898 117.49 203.241C117.174 202.573 117.039 201.815 117.083 200.966C117.128 200.117 117.337 199.382 117.71 198.761C118.093 198.13 118.604 197.656 119.241 197.339C119.889 197.023 120.617 196.885 121.426 196.928C122.205 196.969 122.89 197.175 123.481 197.546C124.073 197.918 124.522 198.422 124.829 199.059C125.136 199.686 125.269 200.399 125.228 201.198ZM123.473 200.565C123.496 199.935 123.298 199.419 122.878 199.017C122.459 198.614 121.925 198.396 121.275 198.362C120.686 198.331 120.172 198.494 119.733 198.852C119.294 199.199 119.018 199.691 118.904 200.326L123.473 200.565ZM137.112 197.75C137.761 197.784 138.333 197.949 138.828 198.245C139.334 198.542 139.717 198.963 139.979 199.507C140.251 200.052 140.367 200.699 140.328 201.448L140.073 206.317L138.38 206.228L138.622 201.614C138.661 200.875 138.505 200.301 138.156 199.893C137.808 199.474 137.314 199.248 136.675 199.214C136.036 199.181 135.516 199.354 135.116 199.733C134.726 200.103 134.511 200.658 134.473 201.397L134.231 206.01L132.538 205.922L132.78 201.308C132.819 200.569 132.663 199.995 132.314 199.586C131.966 199.168 131.472 198.941 130.833 198.908C130.194 198.874 129.674 199.047 129.274 199.427C128.884 199.797 128.669 200.352 128.631 201.091L128.389 205.704L126.681 205.615L127.114 197.361L128.821 197.451L128.772 198.394C129.069 198.069 129.438 197.823 129.877 197.656C130.316 197.489 130.781 197.418 131.27 197.444C131.929 197.478 132.511 197.649 133.016 197.956C133.52 198.263 133.899 198.688 134.15 199.232C134.426 198.746 134.836 198.372 135.381 198.11C135.926 197.838 136.503 197.718 137.112 197.75ZM145.819 206.753C145.04 206.712 144.345 206.5 143.734 206.118C143.124 205.726 142.656 205.2 142.33 204.542C142.004 203.874 141.864 203.116 141.908 202.267C141.952 201.428 142.176 200.694 142.579 200.064C142.983 199.435 143.513 198.962 144.171 198.646C144.828 198.33 145.551 198.192 146.34 198.234C147.129 198.275 147.834 198.487 148.455 198.87C149.076 199.253 149.554 199.779 149.889 200.447C150.225 201.116 150.371 201.869 150.327 202.708C150.283 203.547 150.054 204.281 149.64 204.91C149.227 205.54 148.681 206.017 148.003 206.342C147.336 206.657 146.608 206.794 145.819 206.753ZM145.896 205.27C146.336 205.293 146.751 205.21 147.141 205.02C147.542 204.83 147.873 204.532 148.134 204.126C148.396 203.719 148.543 203.216 148.574 202.616C148.605 202.017 148.517 201.507 148.309 201.086C148.101 200.654 147.813 200.324 147.444 200.094C147.076 199.864 146.672 199.738 146.233 199.715C145.793 199.692 145.378 199.775 144.988 199.965C144.607 200.156 144.296 200.455 144.055 200.863C143.813 201.26 143.677 201.759 143.646 202.358C143.599 203.247 143.788 203.948 144.211 204.461C144.646 204.964 145.207 205.234 145.896 205.27ZM156.402 198.761C157.051 198.795 157.623 198.96 158.118 199.256C158.624 199.553 159.007 199.974 159.269 200.518C159.531 201.063 159.642 201.709 159.603 202.458L159.348 207.327L157.655 207.238L157.897 202.624C157.936 201.885 157.78 201.312 157.431 200.903C157.083 200.484 156.589 200.258 155.95 200.224C155.311 200.191 154.791 200.364 154.39 200.743C154.001 201.113 153.786 201.668 153.747 202.407L153.506 207.021L151.798 206.931L152.231 198.677L153.938 198.767L153.889 199.711C154.186 199.386 154.555 199.14 154.994 198.972C155.443 198.806 155.913 198.735 156.402 198.761ZM165.066 203.451C165.109 202.622 165.318 201.897 165.691 201.275C166.074 200.655 166.569 200.185 167.177 199.866C167.795 199.538 168.463 199.393 169.182 199.431C169.831 199.465 170.389 199.624 170.854 199.909C171.331 200.184 171.704 200.519 171.973 200.914L172.036 199.715L173.759 199.806L173.326 208.059L171.604 207.969L171.668 206.741C171.358 207.115 170.946 207.419 170.434 207.652C169.921 207.886 169.345 207.986 168.705 207.952C167.996 207.915 167.357 207.701 166.786 207.311C166.217 206.911 165.774 206.377 165.458 205.709C165.153 205.032 165.023 204.28 165.066 203.451ZM171.82 203.835C171.85 203.266 171.756 202.765 171.538 202.333C171.331 201.901 171.043 201.566 170.675 201.326C170.307 201.087 169.903 200.955 169.464 200.932C169.024 200.909 168.609 200.998 168.218 201.198C167.828 201.387 167.502 201.686 167.24 202.093C166.989 202.49 166.848 202.973 166.819 203.543C166.789 204.112 166.877 204.617 167.085 205.059C167.302 205.501 167.594 205.846 167.962 206.096C168.34 206.336 168.743 206.467 169.173 206.49C169.612 206.513 170.027 206.424 170.418 206.225C170.809 206.025 171.131 205.721 171.382 205.314C171.644 204.897 171.79 204.404 171.82 203.835ZM175.217 204.013C175.261 203.164 175.47 202.429 175.843 201.808C176.226 201.177 176.732 200.703 177.359 200.385C177.987 200.067 178.695 199.929 179.484 199.971C180.483 200.023 181.294 200.306 181.918 200.819C182.552 201.323 182.961 202.02 183.145 202.911L181.303 202.815C181.174 202.397 180.951 202.065 180.634 201.818C180.316 201.571 179.908 201.435 179.409 201.409C178.71 201.372 178.137 201.592 177.692 202.07C177.257 202.538 177.016 203.216 176.969 204.105C176.923 204.993 177.091 205.698 177.474 206.219C177.867 206.74 178.414 207.019 179.113 207.056C180.101 207.108 180.778 206.708 181.143 205.855L182.986 205.952C182.702 206.778 182.218 207.424 181.532 207.889C180.848 208.343 180.016 208.545 179.037 208.494C178.248 208.453 177.558 208.241 176.968 207.86C176.377 207.468 175.924 206.944 175.608 206.286C175.303 205.619 175.172 204.862 175.217 204.013ZM189.26 200.483C189.889 200.516 190.441 200.68 190.916 200.975C191.401 201.271 191.77 201.691 192.022 202.235C192.284 202.779 192.395 203.426 192.356 204.175L192.101 209.043L190.408 208.955L190.65 204.341C190.688 203.602 190.533 203.028 190.184 202.619C189.836 202.2 189.342 201.974 188.703 201.941C188.064 201.907 187.544 202.08 187.143 202.46C186.753 202.83 186.539 203.384 186.5 204.123L186.259 208.737L184.551 208.648L185.132 197.563L186.84 197.652L186.641 201.442C186.949 201.108 187.327 200.857 187.777 200.691C188.236 200.524 188.73 200.455 189.26 200.483ZM197.852 209.48C197.073 209.439 196.378 209.227 195.767 208.845C195.157 208.452 194.689 207.927 194.363 207.269C194.037 206.601 193.897 205.843 193.941 204.994C193.985 204.155 194.209 203.421 194.612 202.791C195.016 202.161 195.546 201.689 196.204 201.373C196.861 201.057 197.584 200.919 198.373 200.961C199.162 201.002 199.867 201.214 200.488 201.597C201.109 201.98 201.587 202.506 201.922 203.174C202.258 203.843 202.404 204.596 202.36 205.435C202.316 206.274 202.087 207.008 201.673 207.637C201.26 208.267 200.714 208.744 200.036 209.069C199.369 209.384 198.641 209.521 197.852 209.48ZM197.93 207.997C198.369 208.02 198.784 207.937 199.174 207.747C199.575 207.557 199.906 207.259 200.167 206.852C200.429 206.446 200.576 205.943 200.607 205.343C200.638 204.744 200.55 204.234 200.342 203.812C200.134 203.381 199.846 203.05 199.478 202.821C199.109 202.591 198.705 202.465 198.266 202.442C197.826 202.419 197.411 202.502 197.021 202.692C196.64 202.882 196.329 203.182 196.088 203.589C195.847 203.987 195.71 204.486 195.679 205.085C195.632 205.974 195.821 206.675 196.245 207.188C196.679 207.691 197.24 207.961 197.93 207.997ZM210.074 203.106L209.835 207.675C209.818 207.984 209.877 208.212 210.009 208.36C210.152 208.497 210.398 208.575 210.748 208.594L211.796 208.649L211.722 210.072L210.374 210.001C209.605 209.961 209.025 209.75 208.634 209.369C208.244 208.988 208.07 208.393 208.112 207.584L208.351 203.016L207.378 202.965L207.451 201.571L208.424 201.622L208.532 199.57L210.255 199.661L210.147 201.713L212.154 201.818L212.081 203.211L210.074 203.106ZM221.203 202.292L220.77 210.546L219.063 210.456L219.114 209.483C218.826 209.808 218.458 210.059 218.008 210.236C217.568 210.403 217.104 210.474 216.615 210.448C215.966 210.414 215.389 210.249 214.883 209.952C214.388 209.656 214.005 209.235 213.733 208.69C213.471 208.146 213.36 207.499 213.399 206.75L213.653 201.896L215.346 201.985L215.105 206.584C215.066 207.323 215.221 207.902 215.57 208.321C215.919 208.729 216.413 208.951 217.052 208.984C217.691 209.018 218.206 208.849 218.596 208.479C218.996 208.1 219.216 207.54 219.254 206.801L219.495 202.203L221.203 202.292ZM233.454 202.799C234.104 202.833 234.676 202.998 235.171 203.295C235.676 203.591 236.06 204.012 236.321 204.556C236.593 205.101 236.71 205.748 236.67 206.497L236.415 211.366L234.722 211.277L234.964 206.663C235.003 205.924 234.848 205.35 234.499 204.942C234.15 204.523 233.656 204.297 233.017 204.263C232.378 204.23 231.858 204.403 231.458 204.782C231.068 205.152 230.854 205.707 230.815 206.446L230.573 211.06L228.88 210.971L229.122 206.357C229.161 205.618 229.006 205.044 228.657 204.635C228.308 204.217 227.814 203.99 227.175 203.957C226.536 203.923 226.016 204.097 225.616 204.476C225.226 204.846 225.012 205.401 224.973 206.14L224.731 210.753L223.024 210.664L223.456 202.41L225.164 202.5L225.114 203.443C225.412 203.119 225.78 202.872 226.219 202.705C226.659 202.538 227.123 202.467 227.612 202.493C228.272 202.527 228.853 202.698 229.358 203.005C229.863 203.312 230.241 203.737 230.493 204.281C230.769 203.795 231.179 203.421 231.723 203.159C232.268 202.887 232.845 202.767 233.454 202.799ZM239.947 202.178C239.637 202.162 239.383 202.043 239.184 201.823C238.986 201.602 238.894 201.337 238.911 201.027C238.927 200.718 239.045 200.463 239.266 200.265C239.487 200.066 239.752 199.975 240.061 199.991C240.361 200.007 240.61 200.125 240.809 200.346C241.008 200.566 241.099 200.831 241.083 201.141C241.066 201.451 240.948 201.705 240.727 201.903C240.507 202.102 240.246 202.194 239.947 202.178ZM240.728 203.315L240.296 211.569L238.588 211.48L239.021 203.226L240.728 203.315ZM248.505 204.955C248.815 204.57 249.227 204.267 249.739 204.043C250.262 203.81 250.833 203.71 251.452 203.742C252.181 203.78 252.831 203.99 253.402 204.37C253.973 204.751 254.411 205.274 254.717 205.941C255.023 206.598 255.154 207.341 255.111 208.17C255.067 208.999 254.858 209.734 254.484 210.375C254.111 211.006 253.615 211.491 252.996 211.829C252.388 212.158 251.725 212.303 251.006 212.266C250.366 212.232 249.804 212.077 249.318 211.802C248.841 211.526 248.469 211.186 248.199 210.782L248.137 211.98L246.429 211.891L247.01 200.806L248.717 200.895L248.505 204.955ZM253.373 208.079C253.403 207.51 253.309 207.014 253.09 206.592C252.883 206.16 252.59 205.83 252.211 205.6C251.843 205.36 251.439 205.229 251 205.206C250.571 205.183 250.155 205.271 249.754 205.471C249.363 205.671 249.037 205.974 248.775 206.381C248.524 206.788 248.383 207.276 248.353 207.846C248.323 208.415 248.412 208.92 248.619 209.362C248.837 209.794 249.13 210.129 249.498 210.369C249.876 210.609 250.279 210.74 250.709 210.763C251.148 210.786 251.563 210.698 251.954 210.498C252.356 210.289 252.683 209.975 252.935 209.558C253.197 209.141 253.343 208.648 253.373 208.079ZM260.154 212.745C259.375 212.704 258.68 212.493 258.069 212.11C257.459 211.718 256.991 211.192 256.665 210.534C256.339 209.866 256.199 209.108 256.243 208.259C256.287 207.42 256.511 206.686 256.915 206.056C257.318 205.427 257.849 204.954 258.506 204.638C259.164 204.322 259.887 204.184 260.676 204.226C261.465 204.267 262.169 204.479 262.79 204.862C263.411 205.245 263.889 205.771 264.225 206.439C264.56 207.108 264.706 207.862 264.662 208.7C264.618 209.539 264.389 210.273 263.976 210.902C263.562 211.532 263.016 212.009 262.339 212.334C261.671 212.649 260.943 212.786 260.154 212.745ZM260.232 211.262C260.671 211.285 261.086 211.202 261.477 211.012C261.877 210.823 262.208 210.524 262.47 210.118C262.731 209.711 262.878 209.208 262.909 208.609C262.941 208.009 262.852 207.499 262.644 207.078C262.436 206.646 262.148 206.316 261.78 206.086C261.411 205.856 261.007 205.73 260.568 205.707C260.129 205.684 259.714 205.767 259.323 205.957C258.943 206.148 258.632 206.447 258.39 206.855C258.149 207.253 258.012 207.751 257.981 208.35C257.934 209.239 258.123 209.94 258.547 210.453C258.981 210.956 259.543 211.226 260.232 211.262ZM270.737 204.753C271.386 204.787 271.958 204.952 272.454 205.248C272.959 205.545 273.342 205.966 273.604 206.51C273.866 207.055 273.977 207.702 273.938 208.451L273.683 213.319L271.99 213.23L272.232 208.616C272.271 207.877 272.116 207.304 271.767 206.895C271.418 206.476 270.924 206.25 270.285 206.216C269.646 206.183 269.126 206.356 268.726 206.735C268.336 207.105 268.121 207.66 268.083 208.399L267.841 213.013L266.133 212.923L266.566 204.67L268.274 204.759L268.224 205.703C268.521 205.378 268.89 205.132 269.329 204.965C269.779 204.798 270.248 204.727 270.737 204.753ZM275.51 209.239C275.554 208.41 275.762 207.685 276.135 207.064C276.518 206.443 277.013 205.973 277.621 205.654C278.239 205.326 278.912 205.181 279.641 205.22C280.18 205.248 280.703 205.395 281.21 205.662C281.727 205.92 282.131 206.251 282.42 206.657L282.629 202.672L284.351 202.763L283.77 213.848L282.048 213.757L282.113 212.514C281.812 212.899 281.406 213.208 280.893 213.441C280.39 213.675 279.819 213.776 279.18 213.742C278.461 213.704 277.811 213.49 277.231 213.099C276.661 212.699 276.218 212.165 275.903 211.498C275.598 210.821 275.467 210.068 275.51 209.239ZM282.264 209.623C282.294 209.054 282.2 208.553 281.983 208.121C281.775 207.69 281.487 207.354 281.119 207.115C280.751 206.875 280.347 206.744 279.908 206.721C279.469 206.698 279.053 206.786 278.662 206.986C278.272 207.176 277.946 207.474 277.684 207.881C277.433 208.278 277.293 208.762 277.263 209.331C277.233 209.9 277.322 210.405 277.529 210.847C277.746 211.289 278.038 211.634 278.406 211.884C278.784 212.124 279.187 212.255 279.617 212.278C280.056 212.301 280.471 212.213 280.862 212.013C281.253 211.813 281.575 211.509 281.826 211.102C282.089 210.685 282.235 210.192 282.264 209.623ZM290.722 205.8C291.351 205.833 291.903 205.997 292.379 206.293C292.864 206.588 293.232 207.008 293.484 207.552C293.746 208.097 293.857 208.743 293.818 209.492L293.563 214.361L291.87 214.272L292.112 209.658C292.151 208.919 291.996 208.345 291.646 207.937C291.298 207.518 290.804 207.292 290.165 207.258C289.526 207.225 289.006 207.398 288.606 207.777C288.216 208.147 288.001 208.702 287.963 209.441L287.721 214.055L286.013 213.965L286.594 202.88L288.302 202.97L288.103 206.76C288.411 206.425 288.79 206.175 289.239 206.008C289.698 205.842 290.193 205.773 290.722 205.8ZM303.648 206.613L303.216 214.867L301.508 214.777L301.559 213.803C301.272 214.129 300.903 214.38 300.453 214.557C300.014 214.724 299.55 214.795 299.06 214.769C298.411 214.735 297.834 214.57 297.329 214.273C296.834 213.976 296.45 213.556 296.178 213.011C295.916 212.466 295.805 211.82 295.844 211.071L296.099 206.217L297.791 206.306L297.55 210.905C297.512 211.644 297.667 212.223 298.015 212.641C298.364 213.05 298.858 213.271 299.498 213.305C300.137 213.338 300.651 213.17 301.041 212.8C301.441 212.42 301.661 211.861 301.7 211.122L301.941 206.523L303.648 206.613ZM308.824 204.571C309.842 204.624 310.641 204.947 311.221 205.538C311.811 206.129 312.081 206.91 312.03 207.878C311.977 208.887 311.618 209.629 310.952 210.105C310.286 210.581 309.424 210.791 308.365 210.735L308.243 211.916L306.76 211.838L306.809 209.482L307.303 209.508C308.272 209.559 309.018 209.468 309.54 209.235C310.073 209.002 310.359 208.522 310.397 207.793C310.425 207.263 310.292 206.841 309.998 206.525C309.714 206.21 309.302 206.038 308.763 206.01C308.224 205.982 307.792 206.104 307.467 206.377C307.142 206.651 306.966 207.047 306.939 207.566L305.336 207.482C305.368 206.883 305.531 206.356 305.825 205.901C306.119 205.446 306.523 205.101 307.036 204.868C307.559 204.635 308.155 204.536 308.824 204.571ZM307.306 215.186C306.996 215.17 306.742 215.051 306.544 214.831C306.345 214.61 306.254 214.345 306.27 214.035C306.286 213.726 306.404 213.472 306.625 213.273C306.846 213.074 307.111 212.983 307.421 212.999C307.72 213.015 307.969 213.133 308.168 213.354C308.367 213.574 308.458 213.84 308.442 214.149C308.426 214.459 308.307 214.713 308.086 214.912C307.866 215.11 307.606 215.202 307.306 215.186Z" fill="white"/>
<defs>
<filter id="filter0_b_111_6" x="6.18799" y="6.18814" width="408.01" height="408.01" filterUnits="userSpaceOnUse" color-interpolation-filters="sRGB">
<feFlood flood-opacity="0" result="BackgroundImageFix"/>
<feGaussianBlur in="BackgroundImageFix" stdDeviation="2"/>
<feComposite in2="SourceAlpha" operator="in" result="effect1_backgroundBlur_111_6"/>
<feBlend mode="normal" in="SourceGraphic" in2="effect1_backgroundBlur_111_6" result="shape"/>
</filter>
<radialGradient id="paint0_radial_111_6" cx="0" cy="0" r="1" gradientUnits="userSpaceOnUse" gradientTransform="translate(210.193 210.193) rotate(74.6369) scale(186.209)">
<stop stop-color="#80E897"/>
<stop offset="1" stop-color="white" stop-opacity="0"/>
</radialGradient>
</defs>
</svg>
