<svg width="324" height="420" viewBox="0 0 324 420" fill="none" xmlns="http://www.w3.org/2000/svg">
<g filter="url(#filter0_f_111_5)">
<circle cx="97.4871" cy="193.487" r="200" transform="rotate(8 97.4871 193.487)" fill="url(#paint0_radial_111_5)"/>
</g>
<path d="M-5.54985 191.909C-4.82725 178.12 6.93609 167.529 20.7243 168.251L186.996 176.965C198.854 177.587 207.963 187.703 207.341 199.561C206.72 211.419 196.604 220.528 184.746 219.906L-6.4919 209.884L-5.54985 191.909Z" fill="#1E1E1E"/>
<path d="M14.4257 190.828L18.0145 195.146L15.7077 195.025L12.838 191.315L12.6519 194.865L10.9442 194.776L11.5252 183.691L13.2328 183.781L12.8953 190.222L16.0804 186.769L18.4471 186.893L14.4257 190.828ZM18.8876 191.016C18.931 190.188 19.1392 189.462 19.5123 188.841C19.8953 188.22 20.3905 187.751 20.998 187.432C21.6161 187.104 22.2846 186.959 23.0036 186.996C23.6527 187.03 24.2101 187.19 24.6759 187.474C25.1521 187.75 25.5251 188.085 25.7948 188.479L25.8576 187.281L27.5802 187.371L27.1477 195.625L25.425 195.535L25.4894 194.306C25.1794 194.681 24.7679 194.985 24.255 195.218C23.7421 195.452 23.1661 195.552 22.5269 195.518C21.8179 195.481 21.1782 195.267 20.6079 194.877C20.038 194.476 19.5954 193.942 19.2799 193.275C18.9749 192.598 18.8441 191.845 18.8876 191.016ZM25.6417 191.4C25.6715 190.831 25.5776 190.331 25.3599 189.899C25.1522 189.467 24.8644 189.132 24.4964 188.892C24.1285 188.652 23.7248 188.521 23.2854 188.498C22.846 188.475 22.4308 188.563 22.0398 188.763C21.6493 188.953 21.3233 189.251 21.0616 189.658C20.8105 190.056 20.67 190.539 20.6401 191.108C20.6103 191.677 20.699 192.183 20.9062 192.624C21.1233 193.066 21.4156 193.412 21.7831 193.662C22.161 193.902 22.5647 194.033 22.9941 194.055C23.4335 194.078 23.8487 193.99 24.2397 193.79C24.6307 193.59 24.952 193.287 25.2037 192.879C25.4659 192.463 25.6119 191.97 25.6417 191.4ZM39.8215 187.878C40.4706 187.912 41.0428 188.077 41.5379 188.373C42.0431 188.67 42.4266 189.091 42.6885 189.635C42.9603 190.18 43.0766 190.827 43.0374 191.576L42.7822 196.444L41.0896 196.356L41.3314 191.742C41.3701 191.003 41.2149 190.429 40.8658 190.02C40.5173 189.601 40.0234 189.375 39.3843 189.342C38.7452 189.308 38.2254 189.481 37.825 189.861C37.4351 190.231 37.2208 190.786 37.182 191.525L36.9403 196.138L35.2476 196.049L35.4894 191.436C35.5281 190.697 35.3729 190.123 35.0238 189.714C34.6753 189.295 34.1814 189.069 33.5423 189.036C32.9032 189.002 32.3834 189.175 31.983 189.555C31.5931 189.925 31.3788 190.479 31.3401 191.218L31.0983 195.832L29.3906 195.743L29.8232 187.489L31.5308 187.578L31.4814 188.522C31.7788 188.197 32.1472 187.951 32.5865 187.784C33.0259 187.617 33.4902 187.546 33.9795 187.572C34.6386 187.606 35.2205 187.777 35.7251 188.084C36.2298 188.39 36.608 188.816 36.8599 189.36C37.1357 188.873 37.5459 188.499 38.0903 188.238C38.6353 187.966 39.2124 187.846 39.8215 187.878ZM52.8625 188.696L52.4299 196.95L50.7223 196.86L50.7733 195.887C50.4859 196.212 50.1172 196.463 49.6674 196.64C49.228 196.807 48.7637 196.878 48.2743 196.852C47.6252 196.818 47.0481 196.653 46.5429 196.356C46.0478 196.06 45.6643 195.639 45.3924 195.094C45.1306 194.55 45.0192 193.903 45.0585 193.154L45.3129 188.301L47.0055 188.389L46.7645 192.988C46.7258 193.727 46.8807 194.306 47.2293 194.725C47.5783 195.134 48.0725 195.355 48.7116 195.388C49.3507 195.422 49.8652 195.253 50.2551 194.883C50.6555 194.504 50.8751 193.944 50.9138 193.205L51.1548 188.607L52.8625 188.696ZM59.287 188.898C59.9361 188.932 60.5082 189.097 61.0034 189.393C61.5085 189.69 61.892 190.111 62.1539 190.655C62.4158 191.2 62.5271 191.846 62.4878 192.595L62.2327 197.464L60.54 197.375L60.7818 192.761C60.8205 192.022 60.6654 191.448 60.3163 191.04C59.9677 190.621 59.4739 190.395 58.8348 190.361C58.1956 190.328 57.6759 190.501 57.2755 190.88C56.8855 191.25 56.6712 191.805 56.6325 192.544L56.3907 197.158L54.6831 197.068L55.1156 188.814L56.8233 188.904L56.7738 189.848C57.0712 189.523 57.4396 189.277 57.879 189.109C58.3283 188.943 58.7976 188.872 59.287 188.898ZM67.9511 193.588C67.9945 192.759 68.2028 192.034 68.5758 191.412C68.9588 190.792 69.4541 190.322 70.0616 190.003C70.6796 189.675 71.3481 189.53 72.0671 189.568C72.7162 189.602 73.2736 189.761 73.7394 190.046C74.2156 190.321 74.5886 190.656 74.8583 191.051L74.9211 189.852L76.6438 189.943L76.2112 198.196L74.4886 198.106L74.5529 196.878C74.2429 197.252 73.8315 197.556 73.3185 197.789C72.8056 198.023 72.2296 198.123 71.5905 198.089C70.8814 198.052 70.2418 197.838 69.6714 197.448C69.1016 197.048 68.6589 196.514 68.3434 195.846C68.0384 195.169 67.9076 194.417 67.9511 193.588ZM74.7052 193.972C74.7351 193.402 74.6411 192.902 74.4235 192.47C74.2157 192.038 73.9279 191.703 73.5599 191.463C73.192 191.224 72.7883 191.092 72.3489 191.069C71.9095 191.046 71.4943 191.135 71.1033 191.335C70.7129 191.524 70.3868 191.823 70.1251 192.23C69.874 192.627 69.7335 193.11 69.7037 193.68C69.6738 194.249 69.7625 194.754 69.9697 195.196C70.1869 195.638 70.4792 195.983 70.8466 196.233C71.2246 196.473 71.6282 196.604 72.0577 196.627C72.4971 196.65 72.9122 196.561 73.3032 196.362C73.6942 196.162 74.0156 195.858 74.2672 195.451C74.5294 195.034 74.6754 194.541 74.7052 193.972ZM78.1016 194.15C78.1461 193.301 78.3548 192.566 78.7279 191.944C79.1114 191.314 79.6169 190.839 80.2444 190.522C80.8719 190.204 81.5801 190.066 82.369 190.107C83.3676 190.16 84.1789 190.443 84.8029 190.956C85.4374 191.46 85.8465 192.157 86.0301 193.048L84.1876 192.952C84.0593 192.534 83.8364 192.202 83.5189 191.955C83.2014 191.708 82.7929 191.572 82.2936 191.546C81.5946 191.509 81.0223 191.729 80.5767 192.207C80.1416 192.674 79.9008 193.353 79.8542 194.242C79.8076 195.13 79.976 195.835 80.3592 196.356C80.7525 196.877 81.2986 197.156 81.9977 197.193C82.9863 197.245 83.6632 196.844 84.0283 195.992L85.8707 196.089C85.5871 196.915 85.1027 197.561 84.4174 198.026C83.7327 198.48 82.901 198.682 81.9223 198.631C81.1334 198.589 80.4435 198.378 79.8527 197.997C79.2623 197.605 78.8092 197.081 78.4931 196.423C78.1876 195.756 78.0571 194.999 78.1016 194.15ZM91.009 199.107C90.23 199.066 89.5352 198.855 88.9244 198.472C88.3141 198.08 87.8459 197.554 87.5199 196.896C87.1944 196.228 87.0539 195.47 87.0984 194.621C87.1424 193.782 87.3661 193.048 87.7696 192.418C88.1731 191.789 88.7036 191.316 89.361 191C90.0185 190.684 90.7416 190.546 91.5306 190.588C92.3195 190.629 93.0243 190.841 93.6451 191.224C94.266 191.607 94.7441 192.133 95.0796 192.801C95.415 193.47 95.5608 194.224 95.5168 195.062C95.4729 195.901 95.2441 196.635 94.8306 197.264C94.4171 197.894 93.8714 198.371 93.1935 198.696C92.5261 199.011 91.7979 199.148 91.009 199.107ZM91.0867 197.624C91.5261 197.647 91.941 197.564 92.3315 197.374C92.732 197.185 93.063 196.886 93.3247 196.48C93.5863 196.073 93.7328 195.57 93.7642 194.971C93.7956 194.371 93.7072 193.861 93.499 193.44C93.2913 193.008 93.0032 192.678 92.6347 192.448C92.2662 192.218 91.8623 192.092 91.4229 192.069C90.9835 192.046 90.5686 192.129 90.1781 192.319C89.7976 192.51 89.4865 192.809 89.2448 193.217C89.0037 193.615 88.8674 194.113 88.836 194.712C88.7894 195.601 88.978 196.302 89.4017 196.815C89.836 197.318 90.3976 197.588 91.0867 197.624ZM103.231 192.733L102.992 197.302C102.976 197.611 103.034 197.84 103.166 197.987C103.309 198.124 103.555 198.202 103.905 198.221L104.954 198.276L104.879 199.699L103.531 199.628C102.762 199.588 102.182 199.377 101.791 198.996C101.401 198.615 101.227 198.02 101.269 197.211L101.509 192.643L100.535 192.592L100.608 191.199L101.582 191.25L101.689 189.197L103.412 189.288L103.304 191.34L105.311 191.445L105.238 192.838L103.231 192.733ZM114.36 191.919L113.928 200.173L112.22 200.083L112.271 199.11C111.984 199.435 111.615 199.686 111.165 199.863C110.726 200.03 110.261 200.101 109.772 200.075C109.123 200.041 108.546 199.876 108.041 199.579C107.545 199.283 107.162 198.862 106.89 198.317C106.628 197.773 106.517 197.126 106.556 196.377L106.81 191.524L108.503 191.612L108.262 196.211C108.223 196.95 108.378 197.529 108.727 197.948C109.076 198.357 109.57 198.578 110.209 198.611C110.848 198.645 111.363 198.476 111.753 198.106C112.153 197.727 112.373 197.167 112.411 196.428L112.652 191.83L114.36 191.919ZM126.612 192.426C127.261 192.46 127.833 192.625 128.328 192.922C128.833 193.218 129.217 193.639 129.479 194.184C129.75 194.729 129.867 195.376 129.827 196.125L129.572 200.993L127.88 200.904L128.121 196.29C128.16 195.551 128.005 194.978 127.656 194.569C127.307 194.15 126.813 193.924 126.174 193.89C125.535 193.857 125.015 194.03 124.615 194.409C124.225 194.779 124.011 195.334 123.972 196.073L123.73 200.687L122.038 200.598L122.279 195.984C122.318 195.245 122.163 194.671 121.814 194.263C121.465 193.844 120.972 193.618 120.332 193.584C119.693 193.551 119.174 193.724 118.773 194.103C118.383 194.473 118.169 195.028 118.13 195.767L117.888 200.381L116.181 200.291L116.613 192.037L118.321 192.127L118.271 193.071C118.569 192.746 118.937 192.5 119.377 192.332C119.816 192.165 120.28 192.094 120.77 192.12C121.429 192.155 122.011 192.325 122.515 192.632C123.02 192.939 123.398 193.364 123.65 193.908C123.926 193.422 124.336 193.048 124.88 192.786C125.425 192.514 126.002 192.394 126.612 192.426ZM139.537 197.174C139.521 197.484 139.486 197.762 139.433 198.01L133.127 197.679C133.142 198.341 133.359 198.883 133.777 199.306C134.196 199.728 134.725 199.956 135.364 199.99C136.282 200.038 136.952 199.687 137.371 198.938L139.214 199.035C138.925 199.781 138.437 200.381 137.753 200.836C137.078 201.281 136.257 201.478 135.288 201.428C134.499 201.386 133.8 201.174 133.189 200.792C132.588 200.4 132.125 199.875 131.799 199.217C131.484 198.55 131.348 197.791 131.393 196.943C131.437 196.094 131.646 195.359 132.019 194.737C132.403 194.107 132.913 193.633 133.551 193.316C134.198 192.999 134.926 192.862 135.735 192.904C136.514 192.945 137.199 193.151 137.79 193.523C138.382 193.894 138.831 194.398 139.138 195.035C139.446 195.662 139.579 196.375 139.537 197.174ZM137.782 196.541C137.805 195.912 137.607 195.396 137.188 194.993C136.768 194.591 136.234 194.372 135.585 194.338C134.996 194.308 134.481 194.471 134.042 194.828C133.603 195.176 133.327 195.667 133.214 196.302L137.782 196.541ZM146.957 194.859C147.268 194.475 147.679 194.171 148.192 193.948C148.715 193.715 149.286 193.614 149.905 193.647C150.634 193.685 151.284 193.894 151.855 194.275C152.426 194.655 152.864 195.179 153.169 195.846C153.475 196.503 153.607 197.246 153.563 198.074C153.52 198.903 153.311 199.638 152.937 200.28C152.563 200.911 152.067 201.396 151.449 201.734C150.841 202.062 150.177 202.208 149.458 202.17C148.819 202.137 148.256 201.982 147.77 201.706C147.294 201.431 146.921 201.091 146.652 200.686L146.589 201.885L144.882 201.795L145.462 190.71L147.17 190.8L146.957 194.859ZM151.826 197.983C151.855 197.414 151.761 196.919 151.543 196.497C151.335 196.065 151.042 195.734 150.664 195.504C150.296 195.265 149.892 195.133 149.453 195.11C149.023 195.088 148.608 195.176 148.207 195.375C147.816 195.575 147.49 195.879 147.228 196.285C146.976 196.693 146.836 197.181 146.806 197.75C146.776 198.32 146.865 198.825 147.072 199.266C147.29 199.698 147.582 200.034 147.95 200.274C148.328 200.514 148.732 200.645 149.161 200.668C149.601 200.691 150.016 200.602 150.407 200.402C150.809 200.193 151.135 199.88 151.388 199.462C151.65 199.046 151.796 198.553 151.826 197.983ZM159.638 194.157C160.287 194.191 160.859 194.356 161.354 194.652C161.859 194.949 162.243 195.37 162.504 195.914C162.766 196.459 162.878 197.106 162.838 197.855L162.583 202.723L160.891 202.634L161.132 198.02C161.171 197.282 161.016 196.708 160.667 196.299C160.318 195.88 159.824 195.654 159.185 195.62C158.546 195.587 158.026 195.76 157.626 196.139C157.236 196.51 157.022 197.064 156.983 197.803L156.741 202.417L155.034 202.327L155.466 194.074L157.174 194.163L157.124 195.107C157.422 194.782 157.79 194.536 158.23 194.369C158.679 194.202 159.148 194.131 159.638 194.157ZM164.411 198.643C164.454 197.814 164.662 197.089 165.035 196.468C165.418 195.847 165.913 195.377 166.521 195.058C167.139 194.73 167.813 194.585 168.542 194.624C169.081 194.652 169.604 194.799 170.111 195.066C170.628 195.324 171.031 195.655 171.32 196.061L171.529 192.076L173.252 192.167L172.671 203.252L170.948 203.161L171.013 201.918C170.713 202.303 170.306 202.612 169.793 202.845C169.29 203.079 168.719 203.18 168.08 203.146C167.361 203.108 166.711 202.894 166.131 202.503C165.561 202.103 165.118 201.569 164.803 200.902C164.498 200.225 164.367 199.472 164.411 198.643ZM171.165 199.027C171.194 198.458 171.101 197.957 170.883 197.525C170.675 197.094 170.387 196.758 170.019 196.519C169.651 196.279 169.248 196.148 168.808 196.125C168.369 196.102 167.954 196.19 167.563 196.39C167.172 196.58 166.846 196.878 166.585 197.285C166.333 197.682 166.193 198.166 166.163 198.735C166.133 199.304 166.222 199.809 166.429 200.251C166.646 200.693 166.939 201.038 167.306 201.288C167.684 201.528 168.088 201.659 168.517 201.682C168.956 201.705 169.372 201.617 169.763 201.417C170.154 201.217 170.475 200.913 170.727 200.506C170.989 200.089 171.135 199.596 171.165 199.027ZM182.821 195.507L182.388 203.761L180.681 203.671L180.732 202.698C180.444 203.023 180.076 203.274 179.626 203.451C179.186 203.618 178.722 203.689 178.233 203.663C177.584 203.629 177.006 203.464 176.501 203.167C176.006 202.871 175.623 202.45 175.351 201.905C175.089 201.36 174.978 200.714 175.017 199.965L175.271 195.111L176.964 195.2L176.723 199.799C176.684 200.538 176.839 201.117 177.188 201.536C177.537 201.944 178.031 202.166 178.67 202.199C179.309 202.233 179.824 202.064 180.213 201.694C180.614 201.315 180.833 200.755 180.872 200.016L181.113 195.418L182.821 195.507ZM187.996 193.465C189.015 193.519 189.814 193.841 190.394 194.432C190.984 195.024 191.253 195.804 191.202 196.773C191.149 197.781 190.79 198.523 190.124 198.999C189.459 199.475 188.596 199.685 187.538 199.63L187.416 200.81L185.933 200.732L185.981 198.376L186.476 198.402C187.444 198.453 188.19 198.362 188.713 198.129C189.246 197.897 189.531 197.416 189.57 196.687C189.597 196.158 189.464 195.735 189.17 195.419C188.886 195.104 188.475 194.932 187.936 194.904C187.396 194.876 186.964 194.998 186.64 195.272C186.315 195.545 186.139 195.941 186.112 196.461L184.509 196.377C184.54 195.777 184.703 195.25 184.997 194.795C185.292 194.34 185.695 193.995 186.208 193.762C186.731 193.529 187.327 193.43 187.996 193.465ZM186.478 204.08C186.169 204.064 185.915 203.946 185.716 203.725C185.517 203.504 185.426 203.239 185.442 202.929C185.458 202.62 185.577 202.366 185.798 202.167C186.018 201.968 186.283 201.877 186.593 201.893C186.893 201.909 187.142 202.027 187.34 202.248C187.539 202.469 187.63 202.734 187.614 203.043C187.598 203.353 187.48 203.607 187.259 203.806C187.038 204.004 186.778 204.096 186.478 204.08Z" fill="white"/>
<defs>
<filter id="filter0_f_111_5" x="-106.538" y="-10.5377" width="408.05" height="408.05" filterUnits="userSpaceOnUse" color-interpolation-filters="sRGB">
<feFlood flood-opacity="0" result="BackgroundImageFix"/>
<feBlend mode="normal" in="SourceGraphic" in2="BackgroundImageFix" result="shape"/>
<feGaussianBlur stdDeviation="2" result="effect1_foregroundBlur_111_5"/>
</filter>
<radialGradient id="paint0_radial_111_5" cx="0" cy="0" r="1" gradientUnits="userSpaceOnUse" gradientTransform="translate(97.4871 193.487) rotate(74.6369) scale(186.209)">
<stop stop-color="#FF6F6F"/>
<stop offset="1" stop-color="white" stop-opacity="0"/>
</radialGradient>
</defs>
</svg>
