<svg width="73" height="65" viewBox="0 0 73 65" fill="none" xmlns="http://www.w3.org/2000/svg">
<path d="M0 62V14.6H14.5529C19.1439 14.6 22.7822 15.7038 25.4675 17.9115C28.1529 20.0759 29.4955 23.0411 29.4955 26.8071C29.4955 28.9282 29.0191 30.7679 28.0662 32.3263C27.1134 33.8846 25.814 35.0967 24.1682 35.9624C22.5656 36.8282 20.7032 37.2611 18.5809 37.2611V37.0013C20.8764 36.9581 22.9121 37.3909 24.6879 38.3C26.507 39.1657 27.9363 40.4644 28.9758 42.1959C30.0586 43.9274 30.6 46.0268 30.6 48.4942C30.6 51.2213 29.972 53.6022 28.7159 55.6367C27.4599 57.6712 25.6841 59.2512 23.3885 60.3767C21.1363 61.4589 18.4293 62 15.2675 62H0ZM7.92612 55.2471H14.7478C17.1299 55.2471 18.9924 54.6194 20.335 53.3641C21.721 52.0655 22.414 50.3123 22.414 48.1046C22.414 45.897 21.721 44.1222 20.335 42.7802C18.9924 41.395 17.1299 40.7024 14.7478 40.7024H7.92612V55.2471ZM7.92612 34.1444H14.4229C16.5885 34.1444 18.2777 33.5816 19.4904 32.4561C20.7465 31.2874 21.3745 29.7074 21.3745 27.7161C21.3745 25.7249 20.7465 24.1666 19.4904 23.0411C18.2777 21.9156 16.5885 21.3528 14.4229 21.3528H7.92612V34.1444Z" fill="black"/>
<path d="M64.216 62.9277L65.15 63.3036L65.5195 62.3671L68.1021 55.8228L68.466 54.9006L67.547 54.5287L54.4153 49.2148C56.4142 48.6438 58.3551 47.9156 60.2373 47.0302L60.2409 47.0284C65.3574 44.5961 68.1719 41.1152 68.1719 36.5356V35.2397C68.1719 31.9164 66.8552 29.0991 64.2837 26.8451C62.0529 24.852 59.4258 23.73 56.4385 23.4752H70.4001H71.4001V22.4752V15.5421V14.5421H70.4001H68.1348C67.9155 11.6327 66.7267 9.10376 64.5876 6.99609C62.2502 4.60682 59.3913 3.39741 56.0669 3.39741H48.7712C48.3451 3.39741 48.2091 3.29132 48.1721 3.2542C48.1345 3.21643 48.0279 3.07785 48.0279 2.64795V2V1H47.0279H38.8283H37.8283V2C37.8283 4.85284 38.8346 7.31073 40.8316 9.31492C42.8288 11.3192 45.2796 12.3305 48.1255 12.3305H56.0669C56.6283 12.3305 57.0592 12.5119 57.4246 12.8786C57.7901 13.2455 57.9723 13.6797 57.9723 14.2462V14.5421H35.6001H34.6001V15.5421V22.4752V23.4752H35.6001H49.3139C46.3134 23.7463 43.7083 24.9982 41.5384 27.2155C39.0722 29.6922 37.8283 32.7096 37.8283 36.2117V38.8035V39.8035H38.8283H47.0279H48.0279V38.8035V35.5637C48.0279 34.3131 48.3389 33.559 48.7855 33.1108C49.2313 32.6633 49.9807 32.3521 51.2246 32.3521H54.4528C55.6334 32.3521 56.4638 32.6796 57.0565 33.2431L57.0668 33.2529L57.0774 33.2624C57.6883 33.8109 57.9723 34.4494 57.9723 35.2397V36.5356C57.9723 37.5926 57.3708 38.5408 55.6024 39.3124C53.7262 40.1311 51.1671 40.8266 47.8939 41.3812L47.8881 41.3822L38.6555 43.0021L37.8283 43.1472V43.987V51.6328V52.3083L38.455 52.5605L64.216 62.9277Z" stroke="black" stroke-width="2"/>
</svg>
