<svg width="1920" height="1080" viewBox="0 0 1920 1080" fill="none" xmlns="http://www.w3.org/2000/svg">
<rect width="1920" height="1080" fill="white"/>
<path d="M1345 330.333L1419.67 405L1569 245" stroke="#80E897" stroke-width="10" stroke-linecap="round" stroke-linejoin="round"/>
<path d="M1505 841L1345 681M1505 681L1345 841" stroke="#FF6F6F" stroke-width="10" stroke-linecap="round"/>
<rect x="102" y="113" width="946" height="413" rx="23" stroke="#80E897" stroke-width="4" stroke-dasharray="8 8"/>
<path d="M515 237C515 223.193 526.193 212 540 212H930C943.807 212 955 223.193 955 237V277H540C526.193 277 515 265.807 515 252V237Z" fill="#1E1E1E"/>
<path d="M539.122 246.75L546.742 255H542.122L536.002 247.89V255H532.582V232.8H536.002V245.7L542.002 238.47H546.742L539.122 246.75ZM564.343 246.33C564.343 246.95 564.303 247.51 564.223 248.01H551.593C551.693 249.33 552.183 250.39 553.063 251.19C553.943 251.99 555.023 252.39 556.303 252.39C558.143 252.39 559.443 251.62 560.203 250.08H563.893C563.393 251.6 562.483 252.85 561.163 253.83C559.863 254.79 558.243 255.27 556.303 255.27C554.723 255.27 553.303 254.92 552.043 254.22C550.803 253.5 549.823 252.5 549.103 251.22C548.403 249.92 548.053 248.42 548.053 246.72C548.053 245.02 548.393 243.53 549.073 242.25C549.773 240.95 550.743 239.95 551.983 239.25C553.243 238.55 554.683 238.2 556.303 238.2C557.863 238.2 559.253 238.54 560.473 239.22C561.693 239.9 562.643 240.86 563.323 242.1C564.003 243.32 564.343 244.73 564.343 246.33ZM560.773 245.25C560.753 243.99 560.303 242.98 559.423 242.22C558.543 241.46 557.453 241.08 556.153 241.08C554.973 241.08 553.963 241.46 553.123 242.22C552.283 242.96 551.783 243.97 551.623 245.25H560.773ZM587.719 238.2C589.019 238.2 590.179 238.47 591.199 239.01C592.239 239.55 593.049 240.35 593.629 241.41C594.229 242.47 594.529 243.75 594.529 245.25V255H591.139V245.76C591.139 244.28 590.769 243.15 590.029 242.37C589.289 241.57 588.279 241.17 586.999 241.17C585.719 241.17 584.699 241.57 583.939 242.37C583.199 243.15 582.829 244.28 582.829 245.76V255H579.439V245.76C579.439 244.28 579.069 243.15 578.329 242.37C577.589 241.57 576.579 241.17 575.299 241.17C574.019 241.17 572.999 241.57 572.239 242.37C571.499 243.15 571.129 244.28 571.129 245.76V255H567.709V238.47H571.129V240.36C571.689 239.68 572.399 239.15 573.259 238.77C574.119 238.39 575.039 238.2 576.019 238.2C577.339 238.2 578.519 238.48 579.559 239.04C580.599 239.6 581.399 240.41 581.959 241.47C582.459 240.47 583.239 239.68 584.299 239.1C585.359 238.5 586.499 238.2 587.719 238.2ZM606.051 255.27C604.491 255.27 603.081 254.92 601.821 254.22C600.561 253.5 599.571 252.5 598.851 251.22C598.131 249.92 597.771 248.42 597.771 246.72C597.771 245.04 598.141 243.55 598.881 242.25C599.621 240.95 600.631 239.95 601.911 239.25C603.191 238.55 604.621 238.2 606.201 238.2C607.781 238.2 609.211 238.55 610.491 239.25C611.771 239.95 612.781 240.95 613.521 242.25C614.261 243.55 614.631 245.04 614.631 246.72C614.631 248.4 614.251 249.89 613.491 251.19C612.731 252.49 611.691 253.5 610.371 254.22C609.071 254.92 607.631 255.27 606.051 255.27ZM606.051 252.3C606.931 252.3 607.751 252.09 608.511 251.67C609.291 251.25 609.921 250.62 610.401 249.78C610.881 248.94 611.121 247.92 611.121 246.72C611.121 245.52 610.891 244.51 610.431 243.69C609.971 242.85 609.361 242.22 608.601 241.8C607.841 241.38 607.021 241.17 606.141 241.17C605.261 241.17 604.441 241.38 603.681 241.8C602.941 242.22 602.351 242.85 601.911 243.69C601.471 244.51 601.251 245.52 601.251 246.72C601.251 248.5 601.701 249.88 602.601 250.86C603.521 251.82 604.671 252.3 606.051 252.3ZM626.352 238.2C627.652 238.2 628.812 238.47 629.832 239.01C630.872 239.55 631.682 240.35 632.262 241.41C632.842 242.47 633.132 243.75 633.132 245.25V255H629.742V245.76C629.742 244.28 629.372 243.15 628.632 242.37C627.892 241.57 626.882 241.17 625.602 241.17C624.322 241.17 623.302 241.57 622.542 242.37C621.802 243.15 621.432 244.28 621.432 245.76V255H618.012V238.47H621.432V240.36C621.992 239.68 622.702 239.15 623.562 238.77C624.442 238.39 625.372 238.2 626.352 238.2ZM644.147 246.66C644.147 245 644.487 243.53 645.167 242.25C645.867 240.97 646.807 239.98 647.987 239.28C649.187 238.56 650.507 238.2 651.947 238.2C653.247 238.2 654.377 238.46 655.337 238.98C656.317 239.48 657.097 240.11 657.677 240.87V238.47H661.127V255H657.677V252.54C657.097 253.32 656.307 253.97 655.307 254.49C654.307 255.01 653.167 255.27 651.887 255.27C650.467 255.27 649.167 254.91 647.987 254.19C646.807 253.45 645.867 252.43 645.167 251.13C644.487 249.81 644.147 248.32 644.147 246.66ZM657.677 246.72C657.677 245.58 657.437 244.59 656.957 243.75C656.497 242.91 655.887 242.27 655.127 241.83C654.367 241.39 653.547 241.17 652.667 241.17C651.787 241.17 650.967 241.39 650.207 241.83C649.447 242.25 648.827 242.88 648.347 243.72C647.887 244.54 647.657 245.52 647.657 246.66C647.657 247.8 647.887 248.8 648.347 249.66C648.827 250.52 649.447 251.18 650.207 251.64C650.987 252.08 651.807 252.3 652.667 252.3C653.547 252.3 654.367 252.08 655.127 251.64C655.887 251.2 656.497 250.56 656.957 249.72C657.437 248.86 657.677 247.86 657.677 246.72ZM664.479 246.72C664.479 245.02 664.819 243.53 665.499 242.25C666.199 240.95 667.159 239.95 668.379 239.25C669.599 238.55 670.999 238.2 672.579 238.2C674.579 238.2 676.229 238.68 677.529 239.64C678.849 240.58 679.739 241.93 680.199 243.69H676.509C676.209 242.87 675.729 242.23 675.069 241.77C674.409 241.31 673.579 241.08 672.579 241.08C671.179 241.08 670.059 241.58 669.219 242.58C668.399 243.56 667.989 244.94 667.989 246.72C667.989 248.5 668.399 249.89 669.219 250.89C670.059 251.89 671.179 252.39 672.579 252.39C674.559 252.39 675.869 251.52 676.509 249.78H680.199C679.719 251.46 678.819 252.8 677.499 253.8C676.179 254.78 674.539 255.27 672.579 255.27C670.999 255.27 669.599 254.92 668.379 254.22C667.159 253.5 666.199 252.5 665.499 251.22C664.819 249.92 664.479 248.42 664.479 246.72ZM692.157 238.2C693.417 238.2 694.537 238.47 695.517 239.01C696.517 239.55 697.297 240.35 697.857 241.41C698.437 242.47 698.727 243.75 698.727 245.25V255H695.337V245.76C695.337 244.28 694.967 243.15 694.227 242.37C693.487 241.57 692.477 241.17 691.197 241.17C689.917 241.17 688.897 241.57 688.137 242.37C687.397 243.15 687.027 244.28 687.027 245.76V255H683.607V232.8H687.027V240.39C687.607 239.69 688.337 239.15 689.217 238.77C690.117 238.39 691.097 238.2 692.157 238.2ZM710.26 255.27C708.7 255.27 707.29 254.92 706.03 254.22C704.77 253.5 703.78 252.5 703.06 251.22C702.34 249.92 701.98 248.42 701.98 246.72C701.98 245.04 702.35 243.55 703.09 242.25C703.83 240.95 704.84 239.95 706.12 239.25C707.4 238.55 708.83 238.2 710.41 238.2C711.99 238.2 713.42 238.55 714.7 239.25C715.98 239.95 716.99 240.95 717.73 242.25C718.47 243.55 718.84 245.04 718.84 246.72C718.84 248.4 718.46 249.89 717.7 251.19C716.94 252.49 715.9 253.5 714.58 254.22C713.28 254.92 711.84 255.27 710.26 255.27ZM710.26 252.3C711.14 252.3 711.96 252.09 712.72 251.67C713.5 251.25 714.13 250.62 714.61 249.78C715.09 248.94 715.33 247.92 715.33 246.72C715.33 245.52 715.1 244.51 714.64 243.69C714.18 242.85 713.57 242.22 712.81 241.8C712.05 241.38 711.23 241.17 710.35 241.17C709.47 241.17 708.65 241.38 707.89 241.8C707.15 242.22 706.56 242.85 706.12 243.69C705.68 244.51 705.46 245.52 705.46 246.72C705.46 248.5 705.91 249.88 706.81 250.86C707.73 251.82 708.88 252.3 710.26 252.3ZM734.004 241.26V250.41C734.004 251.03 734.144 251.48 734.424 251.76C734.724 252.02 735.224 252.15 735.924 252.15H738.024V255H735.324C733.784 255 732.604 254.64 731.784 253.92C730.964 253.2 730.554 252.03 730.554 250.41V241.26H728.604V238.47H730.554V234.36H734.004V238.47H738.024V241.26H734.004ZM756.146 238.47V255H752.726V253.05C752.186 253.73 751.476 254.27 750.596 254.67C749.736 255.05 748.816 255.24 747.836 255.24C746.536 255.24 745.366 254.97 744.326 254.43C743.306 253.89 742.496 253.09 741.896 252.03C741.316 250.97 741.026 249.69 741.026 248.19V238.47H744.416V247.68C744.416 249.16 744.786 250.3 745.526 251.1C746.266 251.88 747.276 252.27 748.556 252.27C749.836 252.27 750.846 251.88 751.586 251.1C752.346 250.3 752.726 249.16 752.726 247.68V238.47H756.146ZM780.668 238.2C781.968 238.2 783.128 238.47 784.148 239.01C785.188 239.55 785.998 240.35 786.578 241.41C787.178 242.47 787.478 243.75 787.478 245.25V255H784.088V245.76C784.088 244.28 783.718 243.15 782.978 242.37C782.238 241.57 781.228 241.17 779.948 241.17C778.668 241.17 777.648 241.57 776.888 242.37C776.148 243.15 775.778 244.28 775.778 245.76V255H772.388V245.76C772.388 244.28 772.018 243.15 771.278 242.37C770.538 241.57 769.528 241.17 768.248 241.17C766.968 241.17 765.948 241.57 765.188 242.37C764.448 243.15 764.078 244.28 764.078 245.76V255H760.658V238.47H764.078V240.36C764.638 239.68 765.348 239.15 766.208 238.77C767.068 238.39 767.988 238.2 768.968 238.2C770.288 238.2 771.468 238.48 772.508 239.04C773.548 239.6 774.348 240.41 774.908 241.47C775.408 240.47 776.188 239.68 777.248 239.1C778.308 238.5 779.448 238.2 780.668 238.2ZM793.57 236.28C792.95 236.28 792.43 236.07 792.01 235.65C791.59 235.23 791.38 234.71 791.38 234.09C791.38 233.47 791.59 232.95 792.01 232.53C792.43 232.11 792.95 231.9 793.57 231.9C794.17 231.9 794.68 232.11 795.1 232.53C795.52 232.95 795.73 233.47 795.73 234.09C795.73 234.71 795.52 235.23 795.1 235.65C794.68 236.07 794.17 236.28 793.57 236.28ZM795.25 238.47V255H791.83V238.47H795.25ZM810.953 240.93C811.533 240.13 812.323 239.48 813.323 238.98C814.343 238.46 815.473 238.2 816.713 238.2C818.173 238.2 819.493 238.55 820.673 239.25C821.853 239.95 822.783 240.95 823.463 242.25C824.143 243.53 824.483 245 824.483 246.66C824.483 248.32 824.143 249.81 823.463 251.13C822.783 252.43 821.843 253.45 820.643 254.19C819.463 254.91 818.153 255.27 816.713 255.27C815.433 255.27 814.293 255.02 813.293 254.52C812.313 254.02 811.533 253.38 810.953 252.6V255H807.533V232.8H810.953V240.93ZM821.003 246.66C821.003 245.52 820.763 244.54 820.283 243.72C819.823 242.88 819.203 242.25 818.423 241.83C817.663 241.39 816.843 241.17 815.963 241.17C815.103 241.17 814.283 241.39 813.503 241.83C812.743 242.27 812.123 242.91 811.643 243.75C811.183 244.59 810.953 245.58 810.953 246.72C810.953 247.86 811.183 248.86 811.643 249.72C812.123 250.56 812.743 251.2 813.503 251.64C814.283 252.08 815.103 252.3 815.963 252.3C816.843 252.3 817.663 252.08 818.423 251.64C819.203 251.18 819.823 250.52 820.283 249.66C820.763 248.8 821.003 247.8 821.003 246.66ZM835.035 255.27C833.475 255.27 832.065 254.92 830.805 254.22C829.545 253.5 828.555 252.5 827.835 251.22C827.115 249.92 826.755 248.42 826.755 246.72C826.755 245.04 827.125 243.55 827.865 242.25C828.605 240.95 829.615 239.95 830.895 239.25C832.175 238.55 833.605 238.2 835.185 238.2C836.765 238.2 838.195 238.55 839.475 239.25C840.755 239.95 841.765 240.95 842.505 242.25C843.245 243.55 843.615 245.04 843.615 246.72C843.615 248.4 843.235 249.89 842.475 251.19C841.715 252.49 840.675 253.5 839.355 254.22C838.055 254.92 836.615 255.27 835.035 255.27ZM835.035 252.3C835.915 252.3 836.735 252.09 837.495 251.67C838.275 251.25 838.905 250.62 839.385 249.78C839.865 248.94 840.105 247.92 840.105 246.72C840.105 245.52 839.875 244.51 839.415 243.69C838.955 242.85 838.345 242.22 837.585 241.8C836.825 241.38 836.005 241.17 835.125 241.17C834.245 241.17 833.425 241.38 832.665 241.8C831.925 242.22 831.335 242.85 830.895 243.69C830.455 244.51 830.235 245.52 830.235 246.72C830.235 248.5 830.685 249.88 831.585 250.86C832.505 251.82 833.655 252.3 835.035 252.3ZM855.336 238.2C856.636 238.2 857.796 238.47 858.816 239.01C859.856 239.55 860.666 240.35 861.246 241.41C861.826 242.47 862.116 243.75 862.116 245.25V255H858.726V245.76C858.726 244.28 858.356 243.15 857.616 242.37C856.876 241.57 855.866 241.17 854.586 241.17C853.306 241.17 852.286 241.57 851.526 242.37C850.786 243.15 850.416 244.28 850.416 245.76V255H846.996V238.47H850.416V240.36C850.976 239.68 851.686 239.15 852.546 238.77C853.426 238.39 854.356 238.2 855.336 238.2ZM865.339 246.66C865.339 245 865.679 243.53 866.359 242.25C867.059 240.97 867.999 239.98 869.179 239.28C870.379 238.56 871.709 238.2 873.169 238.2C874.249 238.2 875.309 238.44 876.349 238.92C877.409 239.38 878.249 240 878.869 240.78V232.8H882.319V255H878.869V252.51C878.309 253.31 877.529 253.97 876.529 254.49C875.549 255.01 874.419 255.27 873.139 255.27C871.699 255.27 870.379 254.91 869.179 254.19C867.999 253.45 867.059 252.43 866.359 251.13C865.679 249.81 865.339 248.32 865.339 246.66ZM878.869 246.72C878.869 245.58 878.629 244.59 878.149 243.75C877.689 242.91 877.079 242.27 876.319 241.83C875.559 241.39 874.739 241.17 873.859 241.17C872.979 241.17 872.159 241.39 871.399 241.83C870.639 242.25 870.019 242.88 869.539 243.72C869.079 244.54 868.849 245.52 868.849 246.66C868.849 247.8 869.079 248.8 869.539 249.66C870.019 250.52 870.639 251.18 871.399 251.64C872.179 252.08 872.999 252.3 873.859 252.3C874.739 252.3 875.559 252.08 876.319 251.64C877.079 251.2 877.689 250.56 878.149 249.72C878.629 248.86 878.869 247.86 878.869 246.72ZM895.361 238.2C896.621 238.2 897.741 238.47 898.721 239.01C899.721 239.55 900.501 240.35 901.061 241.41C901.641 242.47 901.931 243.75 901.931 245.25V255H898.541V245.76C898.541 244.28 898.171 243.15 897.431 242.37C896.691 241.57 895.681 241.17 894.401 241.17C893.121 241.17 892.101 241.57 891.341 242.37C890.601 243.15 890.231 244.28 890.231 245.76V255H886.811V232.8H890.231V240.39C890.811 239.69 891.541 239.15 892.421 238.77C893.321 238.39 894.301 238.2 895.361 238.2ZM921.263 238.47V255H917.843V253.05C917.303 253.73 916.593 254.27 915.713 254.67C914.853 255.05 913.933 255.24 912.953 255.24C911.653 255.24 910.483 254.97 909.443 254.43C908.423 253.89 907.613 253.09 907.013 252.03C906.433 250.97 906.143 249.69 906.143 248.19V238.47H909.533V247.68C909.533 249.16 909.903 250.3 910.643 251.1C911.383 251.88 912.393 252.27 913.673 252.27C914.953 252.27 915.963 251.88 916.703 251.1C917.463 250.3 917.843 249.16 917.843 247.68V238.47H921.263ZM931.385 233.85C933.425 233.85 935.055 234.41 936.275 235.53C937.515 236.65 938.135 238.18 938.135 240.12C938.135 242.14 937.495 243.66 936.215 244.68C934.935 245.7 933.235 246.21 931.115 246.21L930.995 248.58H928.025L927.875 243.87H928.865C930.805 243.87 932.285 243.61 933.305 243.09C934.345 242.57 934.865 241.58 934.865 240.12C934.865 239.06 934.555 238.23 933.935 237.63C933.335 237.03 932.495 236.73 931.415 236.73C930.335 236.73 929.485 237.02 928.865 237.6C928.245 238.18 927.935 238.99 927.935 240.03H924.725C924.725 238.83 924.995 237.76 925.535 236.82C926.075 235.88 926.845 235.15 927.845 234.63C928.865 234.11 930.045 233.85 931.385 233.85ZM929.465 255.21C928.845 255.21 928.325 255 927.905 254.58C927.485 254.16 927.275 253.64 927.275 253.02C927.275 252.4 927.485 251.88 927.905 251.46C928.325 251.04 928.845 250.83 929.465 250.83C930.065 250.83 930.575 251.04 930.995 251.46C931.415 251.88 931.625 252.4 931.625 253.02C931.625 253.64 931.415 254.16 930.995 254.58C930.575 255 930.065 255.21 929.465 255.21Z" fill="white"/>
<path d="M220 364H644C656.703 364 667 374.297 667 387V402C667 414.703 656.703 425 644 425H197V387C197 374.297 207.297 364 220 364Z" fill="white"/>
<path d="M220 364H644C656.703 364 667 374.297 667 387V402C667 414.703 656.703 425 644 425H197V387C197 374.297 207.297 364 220 364Z" stroke="black" stroke-width="4"/>
<path d="M215.951 386.91V393.03H223.151V395.82H215.951V402.21H224.051V405H212.531V384.12H224.051V386.91H215.951ZM230.004 386.28C229.384 386.28 228.864 386.07 228.444 385.65C228.024 385.23 227.814 384.71 227.814 384.09C227.814 383.47 228.024 382.95 228.444 382.53C228.864 382.11 229.384 381.9 230.004 381.9C230.604 381.9 231.114 382.11 231.534 382.53C231.954 382.95 232.164 383.47 232.164 384.09C232.164 384.71 231.954 385.23 231.534 385.65C231.114 386.07 230.604 386.28 230.004 386.28ZM231.684 388.47V405H228.264V388.47H231.684ZM240.164 391.26V400.41C240.164 401.03 240.304 401.48 240.584 401.76C240.884 402.02 241.384 402.15 242.084 402.15H244.184V405H241.484C239.944 405 238.764 404.64 237.944 403.92C237.124 403.2 236.714 402.03 236.714 400.41V391.26H234.764V388.47H236.714V384.36H240.164V388.47H244.184V391.26H240.164ZM254.506 405.27C252.946 405.27 251.536 404.92 250.276 404.22C249.016 403.5 248.026 402.5 247.306 401.22C246.586 399.92 246.226 398.42 246.226 396.72C246.226 395.04 246.596 393.55 247.336 392.25C248.076 390.95 249.086 389.95 250.366 389.25C251.646 388.55 253.076 388.2 254.656 388.2C256.236 388.2 257.666 388.55 258.946 389.25C260.226 389.95 261.236 390.95 261.976 392.25C262.716 393.55 263.086 395.04 263.086 396.72C263.086 398.4 262.706 399.89 261.946 401.19C261.186 402.49 260.146 403.5 258.826 404.22C257.526 404.92 256.086 405.27 254.506 405.27ZM254.506 402.3C255.386 402.3 256.206 402.09 256.966 401.67C257.746 401.25 258.376 400.62 258.856 399.78C259.336 398.94 259.576 397.92 259.576 396.72C259.576 395.52 259.346 394.51 258.886 393.69C258.426 392.85 257.816 392.22 257.056 391.8C256.296 391.38 255.476 391.17 254.596 391.17C253.716 391.17 252.896 391.38 252.136 391.8C251.396 392.22 250.806 392.85 250.366 393.69C249.926 394.51 249.706 395.52 249.706 396.72C249.706 398.5 250.156 399.88 251.056 400.86C251.976 401.82 253.126 402.3 254.506 402.3ZM285.42 394.29C286.54 394.49 287.49 395.08 288.27 396.06C289.05 397.04 289.44 398.15 289.44 399.39C289.44 400.45 289.16 401.41 288.6 402.27C288.06 403.11 287.27 403.78 286.23 404.28C285.19 404.76 283.98 405 282.6 405H274.26V384.15H282.21C283.63 384.15 284.85 384.39 285.87 384.87C286.89 385.35 287.66 386 288.18 386.82C288.7 387.62 288.96 388.52 288.96 389.52C288.96 390.72 288.64 391.72 288 392.52C287.36 393.32 286.5 393.91 285.42 394.29ZM277.68 392.91H281.91C283.03 392.91 283.9 392.66 284.52 392.16C285.16 391.64 285.48 390.9 285.48 389.94C285.48 389 285.16 388.27 284.52 387.75C283.9 387.21 283.03 386.94 281.91 386.94H277.68V392.91ZM282.3 402.21C283.46 402.21 284.37 401.93 285.03 401.37C285.69 400.81 286.02 400.03 286.02 399.03C286.02 398.01 285.67 397.2 284.97 396.6C284.27 396 283.34 395.7 282.18 395.7H277.68V402.21H282.3ZM301.706 388.2C302.966 388.2 304.086 388.47 305.066 389.01C306.066 389.55 306.846 390.35 307.406 391.41C307.986 392.47 308.276 393.75 308.276 395.25V405H304.886V395.76C304.886 394.28 304.516 393.15 303.776 392.37C303.036 391.57 302.026 391.17 300.746 391.17C299.466 391.17 298.446 391.57 297.686 392.37C296.946 393.15 296.576 394.28 296.576 395.76V405H293.156V382.8H296.576V390.39C297.156 389.69 297.886 389.15 298.766 388.77C299.666 388.39 300.646 388.2 301.706 388.2ZM311.499 396.66C311.499 395 311.839 393.53 312.519 392.25C313.219 390.97 314.159 389.98 315.339 389.28C316.539 388.56 317.859 388.2 319.299 388.2C320.599 388.2 321.729 388.46 322.689 388.98C323.669 389.48 324.449 390.11 325.029 390.87V388.47H328.479V405H325.029V402.54C324.449 403.32 323.659 403.97 322.659 404.49C321.659 405.01 320.519 405.27 319.239 405.27C317.819 405.27 316.519 404.91 315.339 404.19C314.159 403.45 313.219 402.43 312.519 401.13C311.839 399.81 311.499 398.32 311.499 396.66ZM325.029 396.72C325.029 395.58 324.789 394.59 324.309 393.75C323.849 392.91 323.239 392.27 322.479 391.83C321.719 391.39 320.899 391.17 320.019 391.17C319.139 391.17 318.319 391.39 317.559 391.83C316.799 392.25 316.179 392.88 315.699 393.72C315.239 394.54 315.009 395.52 315.009 396.66C315.009 397.8 315.239 398.8 315.699 399.66C316.179 400.52 316.799 401.18 317.559 401.64C318.339 402.08 319.159 402.3 320.019 402.3C320.899 402.3 321.719 402.08 322.479 401.64C323.239 401.2 323.849 400.56 324.309 399.72C324.789 398.86 325.029 397.86 325.029 396.72ZM336.391 382.8V405H332.971V382.8H336.391ZM348.051 405.27C346.491 405.27 345.081 404.92 343.821 404.22C342.561 403.5 341.571 402.5 340.851 401.22C340.131 399.92 339.771 398.42 339.771 396.72C339.771 395.04 340.141 393.55 340.881 392.25C341.621 390.95 342.631 389.95 343.911 389.25C345.191 388.55 346.621 388.2 348.201 388.2C349.781 388.2 351.211 388.55 352.491 389.25C353.771 389.95 354.781 390.95 355.521 392.25C356.261 393.55 356.631 395.04 356.631 396.72C356.631 398.4 356.251 399.89 355.491 401.19C354.731 402.49 353.691 403.5 352.371 404.22C351.071 404.92 349.631 405.27 348.051 405.27ZM348.051 402.3C348.931 402.3 349.751 402.09 350.511 401.67C351.291 401.25 351.921 400.62 352.401 399.78C352.881 398.94 353.121 397.92 353.121 396.72C353.121 395.52 352.891 394.51 352.431 393.69C351.971 392.85 351.361 392.22 350.601 391.8C349.841 391.38 349.021 391.17 348.141 391.17C347.261 391.17 346.441 391.38 345.681 391.8C344.941 392.22 344.351 392.85 343.911 393.69C343.471 394.51 343.251 395.52 343.251 396.72C343.251 398.5 343.701 399.88 344.601 400.86C345.521 401.82 346.671 402.3 348.051 402.3ZM361.392 405.21C360.772 405.21 360.252 405 359.832 404.58C359.412 404.16 359.202 403.64 359.202 403.02C359.202 402.4 359.412 401.88 359.832 401.46C360.252 401.04 360.772 400.83 361.392 400.83C361.992 400.83 362.502 401.04 362.922 401.46C363.342 401.88 363.552 402.4 363.552 403.02C363.552 403.64 363.342 404.16 362.922 404.58C362.502 405 361.992 405.21 361.392 405.21ZM388.511 384.15V386.94H382.961V405H379.541V386.94H373.961V384.15H388.511ZM399.145 405.27C397.585 405.27 396.175 404.92 394.915 404.22C393.655 403.5 392.665 402.5 391.945 401.22C391.225 399.92 390.865 398.42 390.865 396.72C390.865 395.04 391.235 393.55 391.975 392.25C392.715 390.95 393.725 389.95 395.005 389.25C396.285 388.55 397.715 388.2 399.295 388.2C400.875 388.2 402.305 388.55 403.585 389.25C404.865 389.95 405.875 390.95 406.615 392.25C407.355 393.55 407.725 395.04 407.725 396.72C407.725 398.4 407.345 399.89 406.585 401.19C405.825 402.49 404.785 403.5 403.465 404.22C402.165 404.92 400.725 405.27 399.145 405.27ZM399.145 402.3C400.025 402.3 400.845 402.09 401.605 401.67C402.385 401.25 403.015 400.62 403.495 399.78C403.975 398.94 404.215 397.92 404.215 396.72C404.215 395.52 403.985 394.51 403.525 393.69C403.065 392.85 402.455 392.22 401.695 391.8C400.935 391.38 400.115 391.17 399.235 391.17C398.355 391.17 397.535 391.38 396.775 391.8C396.035 392.22 395.445 392.85 395.005 393.69C394.565 394.51 394.345 395.52 394.345 396.72C394.345 398.5 394.795 399.88 395.695 400.86C396.615 401.82 397.765 402.3 399.145 402.3ZM431.115 388.2C432.415 388.2 433.575 388.47 434.595 389.01C435.635 389.55 436.445 390.35 437.025 391.41C437.625 392.47 437.925 393.75 437.925 395.25V405H434.535V395.76C434.535 394.28 434.165 393.15 433.425 392.37C432.685 391.57 431.675 391.17 430.395 391.17C429.115 391.17 428.095 391.57 427.335 392.37C426.595 393.15 426.225 394.28 426.225 395.76V405H422.835V395.76C422.835 394.28 422.465 393.15 421.725 392.37C420.985 391.57 419.975 391.17 418.695 391.17C417.415 391.17 416.395 391.57 415.635 392.37C414.895 393.15 414.525 394.28 414.525 395.76V405H411.105V388.47H414.525V390.36C415.085 389.68 415.795 389.15 416.655 388.77C417.515 388.39 418.435 388.2 419.415 388.2C420.735 388.2 421.915 388.48 422.955 389.04C423.995 389.6 424.795 390.41 425.355 391.47C425.855 390.47 426.635 389.68 427.695 389.1C428.755 388.5 429.895 388.2 431.115 388.2ZM441.137 396.66C441.137 395 441.477 393.53 442.157 392.25C442.857 390.97 443.797 389.98 444.977 389.28C446.177 388.56 447.497 388.2 448.937 388.2C450.237 388.2 451.367 388.46 452.327 388.98C453.307 389.48 454.087 390.11 454.667 390.87V388.47H458.117V405H454.667V402.54C454.087 403.32 453.297 403.97 452.297 404.49C451.297 405.01 450.157 405.27 448.877 405.27C447.457 405.27 446.157 404.91 444.977 404.19C443.797 403.45 442.857 402.43 442.157 401.13C441.477 399.81 441.137 398.32 441.137 396.66ZM454.667 396.72C454.667 395.58 454.427 394.59 453.947 393.75C453.487 392.91 452.877 392.27 452.117 391.83C451.357 391.39 450.537 391.17 449.657 391.17C448.777 391.17 447.957 391.39 447.197 391.83C446.437 392.25 445.817 392.88 445.337 393.72C444.877 394.54 444.647 395.52 444.647 396.66C444.647 397.8 444.877 398.8 445.337 399.66C445.817 400.52 446.437 401.18 447.197 401.64C447.977 402.08 448.797 402.3 449.657 402.3C450.537 402.3 451.357 402.08 452.117 401.64C452.877 401.2 453.487 400.56 453.947 399.72C454.427 398.86 454.667 397.86 454.667 396.72ZM466.029 390.87C466.529 390.03 467.189 389.38 468.009 388.92C468.849 388.44 469.839 388.2 470.979 388.2V391.74H470.109C468.769 391.74 467.749 392.08 467.049 392.76C466.369 393.44 466.029 394.62 466.029 396.3V405H462.609V388.47H466.029V390.87ZM488.456 396.75L496.076 405H491.456L485.336 397.89V405H481.916V382.8H485.336V395.7L491.336 388.47H496.076L488.456 396.75ZM500.267 386.28C499.647 386.28 499.127 386.07 498.707 385.65C498.287 385.23 498.077 384.71 498.077 384.09C498.077 383.47 498.287 382.95 498.707 382.53C499.127 382.11 499.647 381.9 500.267 381.9C500.867 381.9 501.377 382.11 501.797 382.53C502.217 382.95 502.427 383.47 502.427 384.09C502.427 384.71 502.217 385.23 501.797 385.65C501.377 386.07 500.867 386.28 500.267 386.28ZM501.947 388.47V405H498.527V388.47H501.947ZM521.4 405.27C519.84 405.27 518.43 404.92 517.17 404.22C515.91 403.5 514.92 402.5 514.2 401.22C513.48 399.92 513.12 398.42 513.12 396.72C513.12 395.04 513.49 393.55 514.23 392.25C514.97 390.95 515.98 389.95 517.26 389.25C518.54 388.55 519.97 388.2 521.55 388.2C523.13 388.2 524.56 388.55 525.84 389.25C527.12 389.95 528.13 390.95 528.87 392.25C529.61 393.55 529.98 395.04 529.98 396.72C529.98 398.4 529.6 399.89 528.84 401.19C528.08 402.49 527.04 403.5 525.72 404.22C524.42 404.92 522.98 405.27 521.4 405.27ZM521.4 402.3C522.28 402.3 523.1 402.09 523.86 401.67C524.64 401.25 525.27 400.62 525.75 399.78C526.23 398.94 526.47 397.92 526.47 396.72C526.47 395.52 526.24 394.51 525.78 393.69C525.32 392.85 524.71 392.22 523.95 391.8C523.19 391.38 522.37 391.17 521.49 391.17C520.61 391.17 519.79 391.38 519.03 391.8C518.29 392.22 517.7 392.85 517.26 393.69C516.82 394.51 516.6 395.52 516.6 396.72C516.6 398.5 517.05 399.88 517.95 400.86C518.87 401.82 520.02 402.3 521.4 402.3ZM536.781 390.93C537.361 390.13 538.151 389.48 539.151 388.98C540.171 388.46 541.301 388.2 542.541 388.2C544.001 388.2 545.321 388.55 546.501 389.25C547.681 389.95 548.611 390.95 549.291 392.25C549.971 393.53 550.311 395 550.311 396.66C550.311 398.32 549.971 399.81 549.291 401.13C548.611 402.43 547.671 403.45 546.471 404.19C545.291 404.91 543.981 405.27 542.541 405.27C541.261 405.27 540.121 405.02 539.121 404.52C538.141 404.02 537.361 403.38 536.781 402.6V405H533.361V382.8H536.781V390.93ZM546.831 396.66C546.831 395.52 546.591 394.54 546.111 393.72C545.651 392.88 545.031 392.25 544.251 391.83C543.491 391.39 542.671 391.17 541.791 391.17C540.931 391.17 540.111 391.39 539.331 391.83C538.571 392.27 537.951 392.91 537.471 393.75C537.011 394.59 536.781 395.58 536.781 396.72C536.781 397.86 537.011 398.86 537.471 399.72C537.951 400.56 538.571 401.2 539.331 401.64C540.111 402.08 540.931 402.3 541.791 402.3C542.671 402.3 543.491 402.08 544.251 401.64C545.031 401.18 545.651 400.52 546.111 399.66C546.591 398.8 546.831 397.8 546.831 396.66ZM560.863 405.27C559.303 405.27 557.893 404.92 556.633 404.22C555.373 403.5 554.383 402.5 553.663 401.22C552.943 399.92 552.583 398.42 552.583 396.72C552.583 395.04 552.953 393.55 553.693 392.25C554.433 390.95 555.443 389.95 556.723 389.25C558.003 388.55 559.433 388.2 561.013 388.2C562.593 388.2 564.023 388.55 565.303 389.25C566.583 389.95 567.593 390.95 568.333 392.25C569.073 393.55 569.443 395.04 569.443 396.72C569.443 398.4 569.063 399.89 568.303 401.19C567.543 402.49 566.503 403.5 565.183 404.22C563.883 404.92 562.443 405.27 560.863 405.27ZM560.863 402.3C561.743 402.3 562.563 402.09 563.323 401.67C564.103 401.25 564.733 400.62 565.213 399.78C565.693 398.94 565.933 397.92 565.933 396.72C565.933 395.52 565.703 394.51 565.243 393.69C564.783 392.85 564.173 392.22 563.413 391.8C562.653 391.38 561.833 391.17 560.953 391.17C560.073 391.17 559.253 391.38 558.493 391.8C557.753 392.22 557.163 392.85 556.723 393.69C556.283 394.51 556.063 395.52 556.063 396.72C556.063 398.5 556.513 399.88 557.413 400.86C558.333 401.82 559.483 402.3 560.863 402.3ZM578.824 405.27C577.524 405.27 576.354 405.04 575.314 404.58C574.294 404.1 573.484 403.46 572.884 402.66C572.284 401.84 571.964 400.93 571.924 399.93H575.464C575.524 400.63 575.854 401.22 576.454 401.7C577.074 402.16 577.844 402.39 578.764 402.39C579.724 402.39 580.464 402.21 580.984 401.85C581.524 401.47 581.794 400.99 581.794 400.41C581.794 399.79 581.494 399.33 580.894 399.03C580.314 398.73 579.384 398.4 578.104 398.04C576.864 397.7 575.854 397.37 575.074 397.05C574.294 396.73 573.614 396.24 573.034 395.58C572.474 394.92 572.194 394.05 572.194 392.97C572.194 392.09 572.454 391.29 572.974 390.57C573.494 389.83 574.234 389.25 575.194 388.83C576.174 388.41 577.294 388.2 578.554 388.2C580.434 388.2 581.944 388.68 583.084 389.64C584.244 390.58 584.864 391.87 584.944 393.51H581.524C581.464 392.77 581.164 392.18 580.624 391.74C580.084 391.3 579.354 391.08 578.434 391.08C577.534 391.08 576.844 391.25 576.364 391.59C575.884 391.93 575.644 392.38 575.644 392.94C575.644 393.38 575.804 393.75 576.124 394.05C576.444 394.35 576.834 394.59 577.294 394.77C577.754 394.93 578.434 395.14 579.334 395.4C580.534 395.72 581.514 396.05 582.274 396.39C583.054 396.71 583.724 397.19 584.284 397.83C584.844 398.47 585.134 399.32 585.154 400.38C585.154 401.32 584.894 402.16 584.374 402.9C583.854 403.64 583.114 404.22 582.154 404.64C581.214 405.06 580.104 405.27 578.824 405.27ZM592.84 391.26V400.41C592.84 401.03 592.98 401.48 593.26 401.76C593.56 402.02 594.06 402.15 594.76 402.15H596.86V405H594.16C592.62 405 591.44 404.64 590.62 403.92C589.8 403.2 589.39 402.03 589.39 400.41V391.26H587.44V388.47H589.39V384.36H592.84V388.47H596.86V391.26H592.84ZM608.562 388.2C609.822 388.2 610.942 388.47 611.922 389.01C612.922 389.55 613.702 390.35 614.262 391.41C614.842 392.47 615.132 393.75 615.132 395.25V405H611.742V395.76C611.742 394.28 611.372 393.15 610.632 392.37C609.892 391.57 608.882 391.17 607.602 391.17C606.322 391.17 605.302 391.57 604.542 392.37C603.802 393.15 603.432 394.28 603.432 395.76V405H600.012V382.8H603.432V390.39C604.012 389.69 604.742 389.15 605.622 388.77C606.522 388.39 607.502 388.2 608.562 388.2ZM618.354 396.66C618.354 395 618.694 393.53 619.374 392.25C620.074 390.97 621.014 389.98 622.194 389.28C623.394 388.56 624.714 388.2 626.154 388.2C627.454 388.2 628.584 388.46 629.544 388.98C630.524 389.48 631.304 390.11 631.884 390.87V388.47H635.334V405H631.884V402.54C631.304 403.32 630.514 403.97 629.514 404.49C628.514 405.01 627.374 405.27 626.094 405.27C624.674 405.27 623.374 404.91 622.194 404.19C621.014 403.45 620.074 402.43 619.374 401.13C618.694 399.81 618.354 398.32 618.354 396.66ZM631.884 396.72C631.884 395.58 631.644 394.59 631.164 393.75C630.704 392.91 630.094 392.27 629.334 391.83C628.574 391.39 627.754 391.17 626.874 391.17C625.994 391.17 625.174 391.39 624.414 391.83C623.654 392.25 623.034 392.88 622.554 393.72C622.094 394.54 621.864 395.52 621.864 396.66C621.864 397.8 622.094 398.8 622.554 399.66C623.034 400.52 623.654 401.18 624.414 401.64C625.194 402.08 626.014 402.3 626.874 402.3C627.754 402.3 628.574 402.08 629.334 401.64C630.094 401.2 630.704 400.56 631.164 399.72C631.644 398.86 631.884 397.86 631.884 396.72ZM645.436 383.85C647.476 383.85 649.106 384.41 650.326 385.53C651.566 386.65 652.186 388.18 652.186 390.12C652.186 392.14 651.546 393.66 650.266 394.68C648.986 395.7 647.286 396.21 645.166 396.21L645.046 398.58H642.076L641.926 393.87H642.916C644.856 393.87 646.336 393.61 647.356 393.09C648.396 392.57 648.916 391.58 648.916 390.12C648.916 389.06 648.606 388.23 647.986 387.63C647.386 387.03 646.546 386.73 645.466 386.73C644.386 386.73 643.536 387.02 642.916 387.6C642.296 388.18 641.986 388.99 641.986 390.03H638.776C638.776 388.83 639.046 387.76 639.586 386.82C640.126 385.88 640.896 385.15 641.896 384.63C642.916 384.11 644.096 383.85 645.436 383.85ZM643.516 405.21C642.896 405.21 642.376 405 641.956 404.58C641.536 404.16 641.326 403.64 641.326 403.02C641.326 402.4 641.536 401.88 641.956 401.46C642.376 401.04 642.896 400.83 643.516 400.83C644.116 400.83 644.626 401.04 645.046 401.46C645.466 401.88 645.676 402.4 645.676 403.02C645.676 403.64 645.466 404.16 645.046 404.58C644.626 405 644.116 405.21 643.516 405.21Z" fill="black"/>
<rect x="102" y="554" width="946" height="413" rx="23" stroke="#FF6F6F" stroke-width="4" stroke-dasharray="8 8"/>
<path d="M515 678C515 664.193 526.193 653 540 653H870C883.807 653 895 664.193 895 678V718H540C526.193 718 515 706.807 515 693V678Z" fill="#1E1E1E"/>
<path d="M544.175 696L536.105 686.67V696H532.685V675.15H536.105V684.66L544.205 675.15H548.495L539.435 685.59L548.645 696H544.175ZM550.529 687.66C550.529 686 550.869 684.53 551.549 683.25C552.249 681.97 553.189 680.98 554.369 680.28C555.569 679.56 556.889 679.2 558.329 679.2C559.629 679.2 560.759 679.46 561.719 679.98C562.699 680.48 563.479 681.11 564.059 681.87V679.47H567.509V696H564.059V693.54C563.479 694.32 562.689 694.97 561.689 695.49C560.689 696.01 559.549 696.27 558.269 696.27C556.849 696.27 555.549 695.91 554.369 695.19C553.189 694.45 552.249 693.43 551.549 692.13C550.869 690.81 550.529 689.32 550.529 687.66ZM564.059 687.72C564.059 686.58 563.819 685.59 563.339 684.75C562.879 683.91 562.269 683.27 561.509 682.83C560.749 682.39 559.929 682.17 559.049 682.17C558.169 682.17 557.349 682.39 556.589 682.83C555.829 683.25 555.209 683.88 554.729 684.72C554.269 685.54 554.039 686.52 554.039 687.66C554.039 688.8 554.269 689.8 554.729 690.66C555.209 691.52 555.829 692.18 556.589 692.64C557.369 693.08 558.189 693.3 559.049 693.3C559.929 693.3 560.749 693.08 561.509 692.64C562.269 692.2 562.879 691.56 563.339 690.72C563.819 689.86 564.059 688.86 564.059 687.72ZM592.011 679.2C593.311 679.2 594.471 679.47 595.491 680.01C596.531 680.55 597.341 681.35 597.921 682.41C598.521 683.47 598.821 684.75 598.821 686.25V696H595.431V686.76C595.431 685.28 595.061 684.15 594.321 683.37C593.581 682.57 592.571 682.17 591.291 682.17C590.011 682.17 588.991 682.57 588.231 683.37C587.491 684.15 587.121 685.28 587.121 686.76V696H583.731V686.76C583.731 685.28 583.361 684.15 582.621 683.37C581.881 682.57 580.871 682.17 579.591 682.17C578.311 682.17 577.291 682.57 576.531 683.37C575.791 684.15 575.421 685.28 575.421 686.76V696H572.001V679.47H575.421V681.36C575.981 680.68 576.691 680.15 577.551 679.77C578.411 679.39 579.331 679.2 580.311 679.2C581.631 679.2 582.811 679.48 583.851 680.04C584.891 680.6 585.691 681.41 586.251 682.47C586.751 681.47 587.531 680.68 588.591 680.1C589.651 679.5 590.791 679.2 592.011 679.2ZM610.343 696.27C608.783 696.27 607.373 695.92 606.113 695.22C604.853 694.5 603.863 693.5 603.143 692.22C602.423 690.92 602.063 689.42 602.063 687.72C602.063 686.04 602.433 684.55 603.173 683.25C603.913 681.95 604.923 680.95 606.203 680.25C607.483 679.55 608.913 679.2 610.493 679.2C612.073 679.2 613.503 679.55 614.783 680.25C616.063 680.95 617.073 681.95 617.813 683.25C618.553 684.55 618.923 686.04 618.923 687.72C618.923 689.4 618.543 690.89 617.783 692.19C617.023 693.49 615.983 694.5 614.663 695.22C613.363 695.92 611.923 696.27 610.343 696.27ZM610.343 693.3C611.223 693.3 612.043 693.09 612.803 692.67C613.583 692.25 614.213 691.62 614.693 690.78C615.173 689.94 615.413 688.92 615.413 687.72C615.413 686.52 615.183 685.51 614.723 684.69C614.263 683.85 613.653 683.22 612.893 682.8C612.133 682.38 611.313 682.17 610.433 682.17C609.553 682.17 608.733 682.38 607.973 682.8C607.233 683.22 606.643 683.85 606.203 684.69C605.763 685.51 605.543 686.52 605.543 687.72C605.543 689.5 605.993 690.88 606.893 691.86C607.813 692.82 608.963 693.3 610.343 693.3ZM630.644 679.2C631.944 679.2 633.104 679.47 634.124 680.01C635.164 680.55 635.974 681.35 636.554 682.41C637.134 683.47 637.424 684.75 637.424 686.25V696H634.034V686.76C634.034 685.28 633.664 684.15 632.924 683.37C632.184 682.57 631.174 682.17 629.894 682.17C628.614 682.17 627.594 682.57 626.834 683.37C626.094 684.15 625.724 685.28 625.724 686.76V696H622.304V679.47H625.724V681.36C626.284 680.68 626.994 680.15 627.854 679.77C628.734 679.39 629.664 679.2 630.644 679.2ZM648.439 687.66C648.439 686 648.779 684.53 649.459 683.25C650.159 681.97 651.099 680.98 652.279 680.28C653.479 679.56 654.799 679.2 656.239 679.2C657.539 679.2 658.669 679.46 659.629 679.98C660.609 680.48 661.389 681.11 661.969 681.87V679.47H665.419V696H661.969V693.54C661.389 694.32 660.599 694.97 659.599 695.49C658.599 696.01 657.459 696.27 656.179 696.27C654.759 696.27 653.459 695.91 652.279 695.19C651.099 694.45 650.159 693.43 649.459 692.13C648.779 690.81 648.439 689.32 648.439 687.66ZM661.969 687.72C661.969 686.58 661.729 685.59 661.249 684.75C660.789 683.91 660.179 683.27 659.419 682.83C658.659 682.39 657.839 682.17 656.959 682.17C656.079 682.17 655.259 682.39 654.499 682.83C653.739 683.25 653.119 683.88 652.639 684.72C652.179 685.54 651.949 686.52 651.949 687.66C651.949 688.8 652.179 689.8 652.639 690.66C653.119 691.52 653.739 692.18 654.499 692.64C655.279 693.08 656.099 693.3 656.959 693.3C657.839 693.3 658.659 693.08 659.419 692.64C660.179 692.2 660.789 691.56 661.249 690.72C661.729 689.86 661.969 688.86 661.969 687.72ZM675.911 696.27C674.611 696.27 673.441 696.04 672.401 695.58C671.381 695.1 670.571 694.46 669.971 693.66C669.371 692.84 669.051 691.93 669.011 690.93H672.551C672.611 691.63 672.941 692.22 673.541 692.7C674.161 693.16 674.931 693.39 675.851 693.39C676.811 693.39 677.551 693.21 678.071 692.85C678.611 692.47 678.881 691.99 678.881 691.41C678.881 690.79 678.581 690.33 677.981 690.03C677.401 689.73 676.471 689.4 675.191 689.04C673.951 688.7 672.941 688.37 672.161 688.05C671.381 687.73 670.701 687.24 670.121 686.58C669.561 685.92 669.281 685.05 669.281 683.97C669.281 683.09 669.541 682.29 670.061 681.57C670.581 680.83 671.321 680.25 672.281 679.83C673.261 679.41 674.381 679.2 675.641 679.2C677.521 679.2 679.031 679.68 680.171 680.64C681.331 681.58 681.951 682.87 682.031 684.51H678.611C678.551 683.77 678.251 683.18 677.711 682.74C677.171 682.3 676.441 682.08 675.521 682.08C674.621 682.08 673.931 682.25 673.451 682.59C672.971 682.93 672.731 683.38 672.731 683.94C672.731 684.38 672.891 684.75 673.211 685.05C673.531 685.35 673.921 685.59 674.381 685.77C674.841 685.93 675.521 686.14 676.421 686.4C677.621 686.72 678.601 687.05 679.361 687.39C680.141 687.71 680.811 688.19 681.371 688.83C681.931 689.47 682.221 690.32 682.241 691.38C682.241 692.32 681.981 693.16 681.461 693.9C680.941 694.64 680.201 695.22 679.241 695.64C678.301 696.06 677.191 696.27 675.911 696.27ZM684.797 687.66C684.797 686 685.137 684.53 685.817 683.25C686.517 681.97 687.457 680.98 688.637 680.28C689.837 679.56 691.157 679.2 692.597 679.2C693.897 679.2 695.027 679.46 695.987 679.98C696.967 680.48 697.747 681.11 698.327 681.87V679.47H701.777V696H698.327V693.54C697.747 694.32 696.957 694.97 695.957 695.49C694.957 696.01 693.817 696.27 692.537 696.27C691.117 696.27 689.817 695.91 688.637 695.19C687.457 694.45 686.517 693.43 685.817 692.13C685.137 690.81 684.797 689.32 684.797 687.66ZM698.327 687.72C698.327 686.58 698.087 685.59 697.607 684.75C697.147 683.91 696.537 683.27 695.777 682.83C695.017 682.39 694.197 682.17 693.317 682.17C692.437 682.17 691.617 682.39 690.857 682.83C690.097 683.25 689.477 683.88 688.997 684.72C688.537 685.54 688.307 686.52 688.307 687.66C688.307 688.8 688.537 689.8 688.997 690.66C689.477 691.52 690.097 692.18 690.857 692.64C691.637 693.08 692.457 693.3 693.317 693.3C694.197 693.3 695.017 693.08 695.777 692.64C696.537 692.2 697.147 691.56 697.607 690.72C698.087 689.86 698.327 688.86 698.327 687.72ZM718.052 682.26V691.41C718.052 692.03 718.192 692.48 718.472 692.76C718.772 693.02 719.272 693.15 719.972 693.15H722.072V696H719.372C717.832 696 716.652 695.64 715.832 694.92C715.012 694.2 714.602 693.03 714.602 691.41V682.26H712.652V679.47H714.602V675.36H718.052V679.47H722.072V682.26H718.052ZM740.194 679.47V696H736.774V694.05C736.234 694.73 735.524 695.27 734.644 695.67C733.784 696.05 732.864 696.24 731.884 696.24C730.584 696.24 729.414 695.97 728.374 695.43C727.354 694.89 726.544 694.09 725.944 693.03C725.364 691.97 725.074 690.69 725.074 689.19V679.47H728.464V688.68C728.464 690.16 728.834 691.3 729.574 692.1C730.314 692.88 731.324 693.27 732.604 693.27C733.884 693.27 734.894 692.88 735.634 692.1C736.394 691.3 736.774 690.16 736.774 688.68V679.47H740.194ZM764.716 679.2C766.016 679.2 767.176 679.47 768.196 680.01C769.236 680.55 770.046 681.35 770.626 682.41C771.226 683.47 771.526 684.75 771.526 686.25V696H768.136V686.76C768.136 685.28 767.766 684.15 767.026 683.37C766.286 682.57 765.276 682.17 763.996 682.17C762.716 682.17 761.696 682.57 760.936 683.37C760.196 684.15 759.826 685.28 759.826 686.76V696H756.436V686.76C756.436 685.28 756.066 684.15 755.326 683.37C754.586 682.57 753.576 682.17 752.296 682.17C751.016 682.17 749.996 682.57 749.236 683.37C748.496 684.15 748.126 685.28 748.126 686.76V696H744.706V679.47H748.126V681.36C748.686 680.68 749.396 680.15 750.256 679.77C751.116 679.39 752.036 679.2 753.016 679.2C754.336 679.2 755.516 679.48 756.556 680.04C757.596 680.6 758.396 681.41 758.956 682.47C759.456 681.47 760.236 680.68 761.296 680.1C762.356 679.5 763.496 679.2 764.716 679.2ZM791.028 687.33C791.028 687.95 790.988 688.51 790.908 689.01H778.278C778.378 690.33 778.868 691.39 779.748 692.19C780.628 692.99 781.708 693.39 782.988 693.39C784.828 693.39 786.128 692.62 786.888 691.08H790.578C790.078 692.6 789.168 693.85 787.848 694.83C786.548 695.79 784.928 696.27 782.988 696.27C781.408 696.27 779.988 695.92 778.728 695.22C777.488 694.5 776.508 693.5 775.788 692.22C775.088 690.92 774.738 689.42 774.738 687.72C774.738 686.02 775.078 684.53 775.758 683.25C776.458 681.95 777.428 680.95 778.668 680.25C779.928 679.55 781.368 679.2 782.988 679.2C784.548 679.2 785.938 679.54 787.158 680.22C788.378 680.9 789.328 681.86 790.008 683.1C790.688 684.32 791.028 685.73 791.028 687.33ZM787.458 686.25C787.438 684.99 786.988 683.98 786.108 683.22C785.228 682.46 784.138 682.08 782.838 682.08C781.658 682.08 780.648 682.46 779.808 683.22C778.968 683.96 778.468 684.97 778.308 686.25H787.458ZM805.607 681.93C806.187 681.13 806.977 680.48 807.977 679.98C808.997 679.46 810.127 679.2 811.367 679.2C812.827 679.2 814.147 679.55 815.327 680.25C816.507 680.95 817.437 681.95 818.117 683.25C818.797 684.53 819.137 686 819.137 687.66C819.137 689.32 818.797 690.81 818.117 692.13C817.437 693.43 816.497 694.45 815.297 695.19C814.117 695.91 812.807 696.27 811.367 696.27C810.087 696.27 808.947 696.02 807.947 695.52C806.967 695.02 806.187 694.38 805.607 693.6V696H802.187V673.8H805.607V681.93ZM815.657 687.66C815.657 686.52 815.417 685.54 814.937 684.72C814.477 683.88 813.857 683.25 813.077 682.83C812.317 682.39 811.497 682.17 810.617 682.17C809.757 682.17 808.937 682.39 808.157 682.83C807.397 683.27 806.777 683.91 806.297 684.75C805.837 685.59 805.607 686.58 805.607 687.72C805.607 688.86 805.837 689.86 806.297 690.72C806.777 691.56 807.397 692.2 808.157 692.64C808.937 693.08 809.757 693.3 810.617 693.3C811.497 693.3 812.317 693.08 813.077 692.64C813.857 692.18 814.477 691.52 814.937 690.66C815.417 689.8 815.657 688.8 815.657 687.66ZM830.859 679.2C832.159 679.2 833.319 679.47 834.339 680.01C835.379 680.55 836.189 681.35 836.769 682.41C837.349 683.47 837.639 684.75 837.639 686.25V696H834.249V686.76C834.249 685.28 833.879 684.15 833.139 683.37C832.399 682.57 831.389 682.17 830.109 682.17C828.829 682.17 827.809 682.57 827.049 683.37C826.309 684.15 825.939 685.28 825.939 686.76V696H822.519V679.47H825.939V681.36C826.499 680.68 827.209 680.15 828.069 679.77C828.949 679.39 829.879 679.2 830.859 679.2ZM840.861 687.66C840.861 686 841.201 684.53 841.881 683.25C842.581 681.97 843.521 680.98 844.701 680.28C845.901 679.56 847.231 679.2 848.691 679.2C849.771 679.2 850.831 679.44 851.871 679.92C852.931 680.38 853.771 681 854.391 681.78V673.8H857.841V696H854.391V693.51C853.831 694.31 853.051 694.97 852.051 695.49C851.071 696.01 849.941 696.27 848.661 696.27C847.221 696.27 845.901 695.91 844.701 695.19C843.521 694.45 842.581 693.43 841.881 692.13C841.201 690.81 840.861 689.32 840.861 687.66ZM854.391 687.72C854.391 686.58 854.151 685.59 853.671 684.75C853.211 683.91 852.601 683.27 851.841 682.83C851.081 682.39 850.261 682.17 849.381 682.17C848.501 682.17 847.681 682.39 846.921 682.83C846.161 683.25 845.541 683.88 845.061 684.72C844.601 685.54 844.371 686.52 844.371 687.66C844.371 688.8 844.601 689.8 845.061 690.66C845.541 691.52 846.161 692.18 846.921 692.64C847.701 693.08 848.521 693.3 849.381 693.3C850.261 693.3 851.081 693.08 851.841 692.64C852.601 692.2 853.211 691.56 853.671 690.72C854.151 689.86 854.391 688.86 854.391 687.72ZM877.303 679.47V696H873.883V694.05C873.343 694.73 872.633 695.27 871.753 695.67C870.893 696.05 869.973 696.24 868.993 696.24C867.693 696.24 866.523 695.97 865.483 695.43C864.463 694.89 863.653 694.09 863.053 693.03C862.473 691.97 862.183 690.69 862.183 689.19V679.47H865.573V688.68C865.573 690.16 865.943 691.3 866.683 692.1C867.423 692.88 868.433 693.27 869.713 693.27C870.993 693.27 872.003 692.88 872.743 692.1C873.503 691.3 873.883 690.16 873.883 688.68V679.47H877.303Z" fill="white"/>
<path d="M220 805H608C620.703 805 631 815.297 631 828V843C631 855.703 620.703 866 608 866H197V828C197 815.297 207.297 805 220 805Z" fill="white"/>
<path d="M220 805H608C620.703 805 631 815.297 631 828V843C631 855.703 620.703 866 608 866H197V828C197 815.297 207.297 805 220 805Z" stroke="black" stroke-width="4"/>
<path d="M211.526 837.66C211.526 836 211.866 834.53 212.546 833.25C213.246 831.97 214.186 830.98 215.366 830.28C216.566 829.56 217.886 829.2 219.326 829.2C220.626 829.2 221.756 829.46 222.716 829.98C223.696 830.48 224.476 831.11 225.056 831.87V829.47H228.506V846H225.056V843.54C224.476 844.32 223.686 844.97 222.686 845.49C221.686 846.01 220.546 846.27 219.266 846.27C217.846 846.27 216.546 845.91 215.366 845.19C214.186 844.45 213.246 843.43 212.546 842.13C211.866 840.81 211.526 839.32 211.526 837.66ZM225.056 837.72C225.056 836.58 224.816 835.59 224.336 834.75C223.876 833.91 223.266 833.27 222.506 832.83C221.746 832.39 220.926 832.17 220.046 832.17C219.166 832.17 218.346 832.39 217.586 832.83C216.826 833.25 216.206 833.88 215.726 834.72C215.266 835.54 215.036 836.52 215.036 837.66C215.036 838.8 215.266 839.8 215.726 840.66C216.206 841.52 216.826 842.18 217.586 842.64C218.366 843.08 219.186 843.3 220.046 843.3C220.926 843.3 221.746 843.08 222.506 842.64C223.266 842.2 223.876 841.56 224.336 840.72C224.816 839.86 225.056 838.86 225.056 837.72ZM248.148 837.33C248.148 837.95 248.108 838.51 248.028 839.01H235.398C235.498 840.33 235.988 841.39 236.868 842.19C237.748 842.99 238.828 843.39 240.108 843.39C241.948 843.39 243.248 842.62 244.008 841.08H247.698C247.198 842.6 246.288 843.85 244.968 844.83C243.668 845.79 242.048 846.27 240.108 846.27C238.528 846.27 237.108 845.92 235.848 845.22C234.608 844.5 233.628 843.5 232.908 842.22C232.208 840.92 231.858 839.42 231.858 837.72C231.858 836.02 232.198 834.53 232.878 833.25C233.578 831.95 234.548 830.95 235.788 830.25C237.048 829.55 238.488 829.2 240.108 829.2C241.668 829.2 243.058 829.54 244.278 830.22C245.498 830.9 246.448 831.86 247.128 833.1C247.808 834.32 248.148 835.73 248.148 837.33ZM244.578 836.25C244.558 834.99 244.108 833.98 243.228 833.22C242.348 832.46 241.258 832.08 239.958 832.08C238.778 832.08 237.768 832.46 236.928 833.22C236.088 833.96 235.588 834.97 235.428 836.25H244.578ZM255.504 832.26V841.41C255.504 842.03 255.644 842.48 255.924 842.76C256.224 843.02 256.724 843.15 257.424 843.15H259.524V846H256.824C255.284 846 254.104 845.64 253.284 844.92C252.464 844.2 252.054 843.03 252.054 841.41V832.26H250.104V829.47H252.054V825.36H255.504V829.47H259.524V832.26H255.504ZM269.846 846.27C268.286 846.27 266.876 845.92 265.616 845.22C264.356 844.5 263.366 843.5 262.646 842.22C261.926 840.92 261.566 839.42 261.566 837.72C261.566 836.04 261.936 834.55 262.676 833.25C263.416 831.95 264.426 830.95 265.706 830.25C266.986 829.55 268.416 829.2 269.996 829.2C271.576 829.2 273.006 829.55 274.286 830.25C275.566 830.95 276.576 831.95 277.316 833.25C278.056 834.55 278.426 836.04 278.426 837.72C278.426 839.4 278.046 840.89 277.286 842.19C276.526 843.49 275.486 844.5 274.166 845.22C272.866 845.92 271.426 846.27 269.846 846.27ZM269.846 843.3C270.726 843.3 271.546 843.09 272.306 842.67C273.086 842.25 273.716 841.62 274.196 840.78C274.676 839.94 274.916 838.92 274.916 837.72C274.916 836.52 274.686 835.51 274.226 834.69C273.766 833.85 273.156 833.22 272.396 832.8C271.636 832.38 270.816 832.17 269.936 832.17C269.056 832.17 268.236 832.38 267.476 832.8C266.736 833.22 266.146 833.85 265.706 834.69C265.266 835.51 265.046 836.52 265.046 837.72C265.046 839.5 265.496 840.88 266.396 841.86C267.316 842.82 268.466 843.3 269.846 843.3ZM293.02 831.93C293.6 831.13 294.39 830.48 295.39 829.98C296.41 829.46 297.54 829.2 298.78 829.2C300.24 829.2 301.56 829.55 302.74 830.25C303.92 830.95 304.85 831.95 305.53 833.25C306.21 834.53 306.55 836 306.55 837.66C306.55 839.32 306.21 840.81 305.53 842.13C304.85 843.43 303.91 844.45 302.71 845.19C301.53 845.91 300.22 846.27 298.78 846.27C297.5 846.27 296.36 846.02 295.36 845.52C294.38 845.02 293.6 844.38 293.02 843.6V846H289.6V823.8H293.02V831.93ZM303.07 837.66C303.07 836.52 302.83 835.54 302.35 834.72C301.89 833.88 301.27 833.25 300.49 832.83C299.73 832.39 298.91 832.17 298.03 832.17C297.17 832.17 296.35 832.39 295.57 832.83C294.81 833.27 294.19 833.91 293.71 834.75C293.25 835.59 293.02 836.58 293.02 837.72C293.02 838.86 293.25 839.86 293.71 840.72C294.19 841.56 294.81 842.2 295.57 842.64C296.35 843.08 297.17 843.3 298.03 843.3C298.91 843.3 299.73 843.08 300.49 842.64C301.27 842.18 301.89 841.52 302.35 840.66C302.83 839.8 303.07 838.8 303.07 837.66ZM308.792 837.66C308.792 836 309.132 834.53 309.812 833.25C310.512 831.97 311.452 830.98 312.632 830.28C313.832 829.56 315.152 829.2 316.592 829.2C317.892 829.2 319.022 829.46 319.982 829.98C320.962 830.48 321.742 831.11 322.322 831.87V829.47H325.772V846H322.322V843.54C321.742 844.32 320.952 844.97 319.952 845.49C318.952 846.01 317.812 846.27 316.532 846.27C315.112 846.27 313.812 845.91 312.632 845.19C311.452 844.45 310.512 843.43 309.812 842.13C309.132 840.81 308.792 839.32 308.792 837.66ZM322.322 837.72C322.322 836.58 322.082 835.59 321.602 834.75C321.142 833.91 320.532 833.27 319.772 832.83C319.012 832.39 318.192 832.17 317.312 832.17C316.432 832.17 315.612 832.39 314.852 832.83C314.092 833.25 313.472 833.88 312.992 834.72C312.532 835.54 312.302 836.52 312.302 837.66C312.302 838.8 312.532 839.8 312.992 840.66C313.472 841.52 314.092 842.18 314.852 842.64C315.632 843.08 316.452 843.3 317.312 843.3C318.192 843.3 319.012 843.08 319.772 842.64C320.532 842.2 321.142 841.56 321.602 840.72C322.082 839.86 322.322 838.86 322.322 837.72ZM333.684 823.8V846H330.264V823.8H333.684ZM345.344 846.27C343.784 846.27 342.374 845.92 341.114 845.22C339.854 844.5 338.864 843.5 338.144 842.22C337.424 840.92 337.064 839.42 337.064 837.72C337.064 836.04 337.434 834.55 338.174 833.25C338.914 831.95 339.924 830.95 341.204 830.25C342.484 829.55 343.914 829.2 345.494 829.2C347.074 829.2 348.504 829.55 349.784 830.25C351.064 830.95 352.074 831.95 352.814 833.25C353.554 834.55 353.924 836.04 353.924 837.72C353.924 839.4 353.544 840.89 352.784 842.19C352.024 843.49 350.984 844.5 349.664 845.22C348.364 845.92 346.924 846.27 345.344 846.27ZM345.344 843.3C346.224 843.3 347.044 843.09 347.804 842.67C348.584 842.25 349.214 841.62 349.694 840.78C350.174 839.94 350.414 838.92 350.414 837.72C350.414 836.52 350.184 835.51 349.724 834.69C349.264 833.85 348.654 833.22 347.894 832.8C347.134 832.38 346.314 832.17 345.434 832.17C344.554 832.17 343.734 832.38 342.974 832.8C342.234 833.22 341.644 833.85 341.204 834.69C340.764 835.51 340.544 836.52 340.544 837.72C340.544 839.5 340.994 840.88 341.894 841.86C342.814 842.82 343.964 843.3 345.344 843.3ZM358.685 846.21C358.065 846.21 357.545 846 357.125 845.58C356.705 845.16 356.495 844.64 356.495 844.02C356.495 843.4 356.705 842.88 357.125 842.46C357.545 842.04 358.065 841.83 358.685 841.83C359.285 841.83 359.795 842.04 360.215 842.46C360.635 842.88 360.845 843.4 360.845 844.02C360.845 844.64 360.635 845.16 360.215 845.58C359.795 846 359.285 846.21 358.685 846.21ZM376.324 832.26V841.41C376.324 842.03 376.464 842.48 376.744 842.76C377.044 843.02 377.544 843.15 378.244 843.15H380.344V846H377.644C376.104 846 374.924 845.64 374.104 844.92C373.284 844.2 372.874 843.03 372.874 841.41V832.26H370.924V829.47H372.874V825.36H376.324V829.47H380.344V832.26H376.324ZM398.466 829.47V846H395.046V844.05C394.506 844.73 393.796 845.27 392.916 845.67C392.056 846.05 391.136 846.24 390.156 846.24C388.856 846.24 387.686 845.97 386.646 845.43C385.626 844.89 384.816 844.09 384.216 843.03C383.636 841.97 383.346 840.69 383.346 839.19V829.47H386.736V838.68C386.736 840.16 387.106 841.3 387.846 842.1C388.586 842.88 389.596 843.27 390.876 843.27C392.156 843.27 393.166 842.88 393.906 842.1C394.666 841.3 395.046 840.16 395.046 838.68V829.47H398.466ZM422.989 829.2C424.289 829.2 425.449 829.47 426.469 830.01C427.509 830.55 428.319 831.35 428.899 832.41C429.499 833.47 429.799 834.75 429.799 836.25V846H426.409V836.76C426.409 835.28 426.039 834.15 425.299 833.37C424.559 832.57 423.549 832.17 422.269 832.17C420.989 832.17 419.969 832.57 419.209 833.37C418.469 834.15 418.099 835.28 418.099 836.76V846H414.709V836.76C414.709 835.28 414.339 834.15 413.599 833.37C412.859 832.57 411.849 832.17 410.569 832.17C409.289 832.17 408.269 832.57 407.509 833.37C406.769 834.15 406.399 835.28 406.399 836.76V846H402.979V829.47H406.399V831.36C406.959 830.68 407.669 830.15 408.529 829.77C409.389 829.39 410.309 829.2 411.289 829.2C412.609 829.2 413.789 829.48 414.829 830.04C415.869 830.6 416.669 831.41 417.229 832.47C417.729 831.47 418.509 830.68 419.569 830.1C420.629 829.5 421.769 829.2 422.989 829.2ZM433.01 837.66C433.01 836 433.35 834.53 434.03 833.25C434.73 831.97 435.67 830.98 436.85 830.28C438.05 829.56 439.37 829.2 440.81 829.2C442.11 829.2 443.24 829.46 444.2 829.98C445.18 830.48 445.96 831.11 446.54 831.87V829.47H449.99V846H446.54V843.54C445.96 844.32 445.17 844.97 444.17 845.49C443.17 846.01 442.03 846.27 440.75 846.27C439.33 846.27 438.03 845.91 436.85 845.19C435.67 844.45 434.73 843.43 434.03 842.13C433.35 840.81 433.01 839.32 433.01 837.66ZM446.54 837.72C446.54 836.58 446.3 835.59 445.82 834.75C445.36 833.91 444.75 833.27 443.99 832.83C443.23 832.39 442.41 832.17 441.53 832.17C440.65 832.17 439.83 832.39 439.07 832.83C438.31 833.25 437.69 833.88 437.21 834.72C436.75 835.54 436.52 836.52 436.52 837.66C436.52 838.8 436.75 839.8 437.21 840.66C437.69 841.52 438.31 842.18 439.07 842.64C439.85 843.08 440.67 843.3 441.53 843.3C442.41 843.3 443.23 843.08 443.99 842.64C444.75 842.2 445.36 841.56 445.82 840.72C446.3 839.86 446.54 838.86 446.54 837.72ZM457.902 831.87C458.402 831.03 459.062 830.38 459.882 829.92C460.722 829.44 461.712 829.2 462.852 829.2V832.74H461.982C460.642 832.74 459.622 833.08 458.922 833.76C458.242 834.44 457.902 835.62 457.902 837.3V846H454.482V829.47H457.902V831.87ZM480.329 837.75L487.949 846H483.329L477.209 838.89V846H473.789V823.8H477.209V836.7L483.209 829.47H487.949L480.329 837.75ZM505.55 837.33C505.55 837.95 505.51 838.51 505.43 839.01H492.8C492.9 840.33 493.39 841.39 494.27 842.19C495.15 842.99 496.23 843.39 497.51 843.39C499.35 843.39 500.65 842.62 501.41 841.08H505.1C504.6 842.6 503.69 843.85 502.37 844.83C501.07 845.79 499.45 846.27 497.51 846.27C495.93 846.27 494.51 845.92 493.25 845.22C492.01 844.5 491.03 843.5 490.31 842.22C489.61 840.92 489.26 839.42 489.26 837.72C489.26 836.02 489.6 834.53 490.28 833.25C490.98 831.95 491.95 830.95 493.19 830.25C494.45 829.55 495.89 829.2 497.51 829.2C499.07 829.2 500.46 829.54 501.68 830.22C502.9 830.9 503.85 831.86 504.53 833.1C505.21 834.32 505.55 835.73 505.55 837.33ZM501.98 836.25C501.96 834.99 501.51 833.98 500.63 833.22C499.75 832.46 498.66 832.08 497.36 832.08C496.18 832.08 495.17 832.46 494.33 833.22C493.49 833.96 492.99 834.97 492.83 836.25H501.98ZM523.879 846.27C522.319 846.27 520.909 845.92 519.649 845.22C518.389 844.5 517.399 843.5 516.679 842.22C515.959 840.92 515.599 839.42 515.599 837.72C515.599 836.04 515.969 834.55 516.709 833.25C517.449 831.95 518.459 830.95 519.739 830.25C521.019 829.55 522.449 829.2 524.029 829.2C525.609 829.2 527.039 829.55 528.319 830.25C529.599 830.95 530.609 831.95 531.349 833.25C532.089 834.55 532.459 836.04 532.459 837.72C532.459 839.4 532.079 840.89 531.319 842.19C530.559 843.49 529.519 844.5 528.199 845.22C526.899 845.92 525.459 846.27 523.879 846.27ZM523.879 843.3C524.759 843.3 525.579 843.09 526.339 842.67C527.119 842.25 527.749 841.62 528.229 840.78C528.709 839.94 528.949 838.92 528.949 837.72C528.949 836.52 528.719 835.51 528.259 834.69C527.799 833.85 527.189 833.22 526.429 832.8C525.669 832.38 524.849 832.17 523.969 832.17C523.089 832.17 522.269 832.38 521.509 832.8C520.769 833.22 520.179 833.85 519.739 834.69C519.299 835.51 519.079 836.52 519.079 837.72C519.079 839.5 519.529 840.88 520.429 841.86C521.349 842.82 522.499 843.3 523.879 843.3ZM539.26 831.93C539.84 831.13 540.63 830.48 541.63 829.98C542.65 829.46 543.78 829.2 545.02 829.2C546.48 829.2 547.8 829.55 548.98 830.25C550.16 830.95 551.09 831.95 551.77 833.25C552.45 834.53 552.79 836 552.79 837.66C552.79 839.32 552.45 840.81 551.77 842.13C551.09 843.43 550.15 844.45 548.95 845.19C547.77 845.91 546.46 846.27 545.02 846.27C543.74 846.27 542.6 846.02 541.6 845.52C540.62 845.02 539.84 844.38 539.26 843.6V846H535.84V823.8H539.26V831.93ZM549.31 837.66C549.31 836.52 549.07 835.54 548.59 834.72C548.13 833.88 547.51 833.25 546.73 832.83C545.97 832.39 545.15 832.17 544.27 832.17C543.41 832.17 542.59 832.39 541.81 832.83C541.05 833.27 540.43 833.91 539.95 834.75C539.49 835.59 539.26 836.58 539.26 837.72C539.26 838.86 539.49 839.86 539.95 840.72C540.43 841.56 541.05 842.2 541.81 842.64C542.59 843.08 543.41 843.3 544.27 843.3C545.15 843.3 545.97 843.08 546.73 842.64C547.51 842.18 548.13 841.52 548.59 840.66C549.07 839.8 549.31 838.8 549.31 837.66ZM562.172 846.27C560.872 846.27 559.702 846.04 558.662 845.58C557.642 845.1 556.832 844.46 556.232 843.66C555.632 842.84 555.312 841.93 555.272 840.93H558.812C558.872 841.63 559.202 842.22 559.802 842.7C560.422 843.16 561.192 843.39 562.112 843.39C563.072 843.39 563.812 843.21 564.332 842.85C564.872 842.47 565.142 841.99 565.142 841.41C565.142 840.79 564.842 840.33 564.242 840.03C563.662 839.73 562.732 839.4 561.452 839.04C560.212 838.7 559.202 838.37 558.422 838.05C557.642 837.73 556.962 837.24 556.382 836.58C555.822 835.92 555.542 835.05 555.542 833.97C555.542 833.09 555.802 832.29 556.322 831.57C556.842 830.83 557.582 830.25 558.542 829.83C559.522 829.41 560.642 829.2 561.902 829.2C563.782 829.2 565.292 829.68 566.432 830.64C567.592 831.58 568.212 832.87 568.292 834.51H564.872C564.812 833.77 564.512 833.18 563.972 832.74C563.432 832.3 562.702 832.08 561.782 832.08C560.882 832.08 560.192 832.25 559.712 832.59C559.232 832.93 558.992 833.38 558.992 833.94C558.992 834.38 559.152 834.75 559.472 835.05C559.792 835.35 560.182 835.59 560.642 835.77C561.102 835.93 561.782 836.14 562.682 836.4C563.882 836.72 564.862 837.05 565.622 837.39C566.402 837.71 567.072 838.19 567.632 838.83C568.192 839.47 568.482 840.32 568.502 841.38C568.502 842.32 568.242 843.16 567.722 843.9C567.202 844.64 566.462 845.22 565.502 845.64C564.562 846.06 563.452 846.27 562.172 846.27ZM576.187 832.26V841.41C576.187 842.03 576.327 842.48 576.607 842.76C576.907 843.02 577.407 843.15 578.107 843.15H580.207V846H577.507C575.967 846 574.787 845.64 573.967 844.92C573.147 844.2 572.737 843.03 572.737 841.41V832.26H570.787V829.47H572.737V825.36H576.187V829.47H580.207V832.26H576.187ZM582.219 837.66C582.219 836 582.559 834.53 583.239 833.25C583.939 831.97 584.879 830.98 586.059 830.28C587.259 829.56 588.579 829.2 590.019 829.2C591.319 829.2 592.449 829.46 593.409 829.98C594.389 830.48 595.169 831.11 595.749 831.87V829.47H599.199V846H595.749V843.54C595.169 844.32 594.379 844.97 593.379 845.49C592.379 846.01 591.239 846.27 589.959 846.27C588.539 846.27 587.239 845.91 586.059 845.19C584.879 844.45 583.939 843.43 583.239 842.13C582.559 840.81 582.219 839.32 582.219 837.66ZM595.749 837.72C595.749 836.58 595.509 835.59 595.029 834.75C594.569 833.91 593.959 833.27 593.199 832.83C592.439 832.39 591.619 832.17 590.739 832.17C589.859 832.17 589.039 832.39 588.279 832.83C587.519 833.25 586.899 833.88 586.419 834.72C585.959 835.54 585.729 836.52 585.729 837.66C585.729 838.8 585.959 839.8 586.419 840.66C586.899 841.52 587.519 842.18 588.279 842.64C589.059 843.08 589.879 843.3 590.739 843.3C591.619 843.3 592.439 843.08 593.199 842.64C593.959 842.2 594.569 841.56 595.029 840.72C595.509 839.86 595.749 838.86 595.749 837.72ZM609.301 824.85C611.341 824.85 612.971 825.41 614.191 826.53C615.431 827.65 616.051 829.18 616.051 831.12C616.051 833.14 615.411 834.66 614.131 835.68C612.851 836.7 611.151 837.21 609.031 837.21L608.911 839.58H605.941L605.791 834.87H606.781C608.721 834.87 610.201 834.61 611.221 834.09C612.261 833.57 612.781 832.58 612.781 831.12C612.781 830.06 612.471 829.23 611.851 828.63C611.251 828.03 610.411 827.73 609.331 827.73C608.251 827.73 607.401 828.02 606.781 828.6C606.161 829.18 605.851 829.99 605.851 831.03H602.641C602.641 829.83 602.911 828.76 603.451 827.82C603.991 826.88 604.761 826.15 605.761 825.63C606.781 825.11 607.961 824.85 609.301 824.85ZM607.381 846.21C606.761 846.21 606.241 846 605.821 845.58C605.401 845.16 605.191 844.64 605.191 844.02C605.191 843.4 605.401 842.88 605.821 842.46C606.241 842.04 606.761 841.83 607.381 841.83C607.981 841.83 608.491 842.04 608.911 842.46C609.331 842.88 609.541 843.4 609.541 844.02C609.541 844.64 609.331 845.16 608.911 845.58C608.491 846 607.981 846.21 607.381 846.21Z" fill="black"/>
</svg>
