<svg width="1920" height="1080" viewBox="0 0 1920 1080" fill="none" xmlns="http://www.w3.org/2000/svg">
<rect width="1920" height="1080" fill="#1E1E1E"/>
<path d="M316.62 461H305.19L273.6 446.15V440.12C273.6 436.22 274.74 432.56 277.02 429.14C279.3 425.72 282.66 423.32 287.1 421.94L305.19 416.45V414.65H269.1V405.02H342.99V414.65H316.62V416.45H319.32C324.96 416.45 329.7 418.04 333.54 421.22C337.44 424.4 339.39 428.54 339.39 433.64C339.39 437.72 337.77 441.17 334.53 443.99C331.35 446.81 327.48 448.22 322.92 448.22V438.59C324.3 438.59 325.47 438.11 326.43 437.15C327.45 436.19 327.96 434.75 327.96 432.83C327.96 430.97 327.15 429.38 325.53 428.06C323.91 426.74 321.84 426.08 319.32 426.08H316.62V461ZM305.19 450.2V426.53L290.97 430.85C287.01 432.05 285.03 434.54 285.03 438.32V440.66L305.19 450.2ZM388.69 461H377.26L345.67 446.15V440.12C345.67 436.22 346.81 432.56 349.09 429.14C351.37 425.72 354.73 423.32 359.17 421.94L377.26 416.45V414.65H341.17V405.02H394.09V414.65H388.69V461ZM377.26 450.2V426.53L363.04 430.85C359.08 432.05 357.1 434.54 357.1 438.32V440.66L377.26 450.2ZM357.28 468.56C355.6 468.56 354.13 467.96 352.87 466.76C351.67 465.56 351.07 464.12 351.07 462.44C351.07 460.76 351.67 459.32 352.87 458.12C354.13 456.86 355.6 456.23 357.28 456.23C358.96 456.23 360.4 456.86 361.6 458.12C362.8 459.32 363.4 460.76 363.4 462.44C363.4 464.12 362.8 465.56 361.6 466.76C360.4 467.96 358.96 468.56 357.28 468.56ZM416.083 461C410.023 460.1 405.283 457.67 401.863 453.71C398.503 449.69 396.823 444.77 396.823 438.95V431.3C396.823 424.7 398.383 419.15 401.503 414.65H392.323V405.02H418.603V414.65C415.723 414.71 413.263 416.12 411.223 418.88C409.243 421.64 408.253 425.18 408.253 429.5V440.75C408.253 443.99 409.003 446.48 410.503 448.22C412.003 449.9 413.863 450.95 416.083 451.37V461ZM449.514 461H443.574C437.454 461 432.204 458.84 427.824 454.52C423.504 450.14 421.344 444.86 421.344 438.68V421.85H432.774V439.58C432.774 442.58 433.824 445.31 435.924 447.77C438.084 450.17 440.634 451.37 443.574 451.37H449.514C452.514 451.37 455.064 450.17 457.164 447.77C459.264 445.31 460.314 442.58 460.314 439.58V432.56C460.314 431.24 459.864 429.98 458.964 428.78C458.064 427.58 456.954 426.98 455.634 426.98H454.734C453.834 426.98 453.054 427.46 452.394 428.42C451.734 429.38 451.404 430.31 451.404 431.21V439.31H439.974V432.11C439.974 428.03 441.414 424.55 444.294 421.67C447.174 418.79 450.954 417.35 455.634 417.35C460.074 417.35 463.854 418.94 466.974 422.12C470.154 425.24 471.744 429.02 471.744 433.46V438.68C471.744 444.86 469.554 450.14 465.174 454.52C460.854 458.84 455.634 461 449.514 461ZM476.244 414.65H416.844V405.02H476.244V414.65ZM514.823 469.55L478.913 455.15V444.53L491.783 442.28C496.403 441.5 500.093 440.51 502.853 439.31C505.613 438.11 506.993 436.4 506.993 434.18V432.38C506.993 430.88 506.423 429.62 505.283 428.6C504.143 427.52 502.613 426.98 500.693 426.98H496.193C492.293 426.98 490.343 428.93 490.343 432.83V437.33H478.913V433.73C478.913 429.23 480.503 425.39 483.683 422.21C486.863 418.97 490.733 417.35 495.293 417.35H501.593C506.213 417.35 510.173 418.82 513.473 421.76C516.773 424.64 518.423 428.18 518.423 432.38V434.18C518.423 439.82 515.003 444.26 508.163 447.5C504.323 449.3 500.303 450.62 496.103 451.46L518.423 460.46L514.823 469.55ZM522.923 414.65H474.412V405.02H506.993V403.22C506.993 402.08 506.603 401.12 505.823 400.34C505.043 399.56 504.083 399.17 502.943 399.17H491.873C488.273 399.17 485.213 397.91 482.693 395.39C480.173 392.87 478.913 389.81 478.913 386.21H490.343V387.11C490.343 388.73 491.153 389.54 492.773 389.54H502.943C507.203 389.54 510.833 391.07 513.833 394.13C516.893 397.13 518.423 400.76 518.423 405.02H522.923V414.65Z" fill="white"/>
<path d="M738.536 437.536C740.488 435.583 740.488 432.417 738.536 430.464L706.716 398.645C704.763 396.692 701.597 396.692 699.645 398.645C697.692 400.597 697.692 403.763 699.645 405.716L727.929 434L699.645 462.284C697.692 464.237 697.692 467.403 699.645 469.355C701.597 471.308 704.763 471.308 706.716 469.355L738.536 437.536ZM585 439H735V429H585V439Z" fill="white"/>
<path d="M997.94 461H984.53L969.95 437.51L964.91 441.11V461H953.12V405.2H964.91V430.76C965.75 429.68 966.56 428.57 967.34 427.43C968.48 425.69 974.27 418.28 984.71 405.2H997.85L978.41 429.95L997.94 461ZM1020.14 461.72C1014.02 461.72 1009.07 459.8 1005.29 455.96C1001.51 452.12 999.62 446.66 999.62 439.58C999.62 434.84 1000.46 430.85 1002.14 427.61C1003.82 424.31 1006.19 421.82 1009.25 420.14C1012.37 418.4 1016.09 417.53 1020.41 417.53C1024.43 417.53 1027.97 418.4 1031.03 420.14C1034.15 421.82 1036.58 424.31 1038.32 427.61C1040.06 430.85 1040.93 434.84 1040.93 439.58C1040.93 446.78 1039.07 452.27 1035.35 456.05C1031.69 459.83 1026.62 461.72 1020.14 461.72ZM1020.32 452.45C1022.36 452.45 1024.01 451.97 1025.27 451.01C1026.59 449.99 1027.55 448.55 1028.15 446.69C1028.75 444.77 1029.05 442.4 1029.05 439.58C1029.05 436.76 1028.75 434.42 1028.15 432.56C1027.55 430.7 1026.59 429.32 1025.27 428.42C1024.01 427.46 1022.33 426.98 1020.23 426.98C1017.17 426.98 1014.95 428.03 1013.57 430.13C1012.19 432.23 1011.5 435.38 1011.5 439.58C1011.5 442.4 1011.8 444.77 1012.4 446.69C1013 448.55 1013.93 449.99 1015.19 451.01C1016.51 451.97 1018.22 452.45 1020.32 452.45ZM1060.33 461H1048.72V418.34H1057.54L1059.25 425.54H1059.79C1060.63 424.1 1061.68 422.78 1062.94 421.58C1064.2 420.32 1065.64 419.33 1067.26 418.61C1068.88 417.89 1070.62 417.53 1072.48 417.53C1074.16 417.53 1075.48 417.65 1076.44 417.89L1075.54 428.78C1074.82 428.54 1073.68 428.42 1072.12 428.42C1068.82 428.42 1066.12 429.23 1064.02 430.85C1061.56 432.71 1060.33 435.53 1060.33 439.31V461ZM1096.97 461.72C1091.27 461.72 1087.4 459.89 1085.36 456.23C1084.22 454.19 1083.65 451.34 1083.65 447.68V427.07H1078.07V422.21L1084.46 418.25L1087.88 409.25H1095.26V418.34H1107.23V427.07H1095.26V447.68C1095.26 450.86 1096.97 452.45 1100.39 452.45C1102.43 452.45 1104.86 452.03 1107.68 451.19V459.83C1104.74 461.09 1101.17 461.72 1096.97 461.72ZM1133.81 461.72C1129.55 461.72 1125.77 460.94 1122.47 459.38C1119.17 457.82 1116.59 455.42 1114.73 452.18C1112.87 448.94 1111.94 444.86 1111.94 439.94C1111.94 434.96 1112.78 430.82 1114.46 427.52C1116.14 424.22 1118.48 421.73 1121.48 420.05C1124.54 418.37 1128.08 417.53 1132.1 417.53C1136.06 417.53 1139.45 418.31 1142.27 419.87C1145.15 421.37 1147.37 423.56 1148.93 426.44C1150.49 429.26 1151.27 432.77 1151.27 436.97V442.55H1123.73C1123.85 445.85 1124.84 448.43 1126.7 450.29C1128.56 452.15 1131.11 453.08 1134.35 453.08C1139.33 453.08 1144.16 451.97 1148.84 449.75V458.75C1144.76 460.73 1139.75 461.72 1133.81 461.72ZM1140.29 434.81C1140.29 433.07 1139.99 431.54 1139.39 430.22C1138.79 428.9 1137.89 427.85 1136.69 427.07C1135.55 426.23 1134.05 425.81 1132.19 425.81C1127.21 425.81 1124.48 428.81 1124 434.81H1140.29ZM1170.55 461H1158.94V418.34H1170.55V461ZM1164.7 413.03C1160.5 413.03 1158.4 411.14 1158.4 407.36C1158.4 403.58 1160.5 401.69 1164.7 401.69C1168.96 401.69 1171.09 403.58 1171.09 407.36C1171.09 411.14 1168.96 413.03 1164.7 413.03Z" fill="white"/>
<path d="M586.417 638.18L581.417 638.182L581.417 638.182L586.417 638.18ZM594.414 646.177L594.416 641.177L594.416 641.177L594.414 646.177ZM716.975 649.762C718.928 647.81 718.93 644.644 716.978 642.691L685.171 610.858C683.219 608.905 680.053 608.903 678.1 610.855C676.146 612.807 676.145 615.973 678.097 617.926L706.37 646.222L678.074 674.495C676.121 676.447 676.119 679.613 678.071 681.566C680.023 683.519 683.189 683.521 685.142 681.569L716.975 649.762ZM581.362 494.176L581.417 638.182L591.417 638.178L591.362 494.172L581.362 494.176ZM594.412 651.177L713.439 651.225L713.443 641.225L594.416 641.177L594.412 651.177ZM581.417 638.182C581.42 645.358 587.236 651.174 594.412 651.177L594.416 641.177C592.76 641.176 591.418 639.834 591.417 638.178L581.417 638.182Z" fill="white"/>
<rect x="932" y="361" width="259" height="145" rx="24" stroke="#80E897" stroke-width="2" stroke-dasharray="11 11"/>
<rect x="932" y="574" width="259" height="145" rx="24" stroke="#FF6F6F" stroke-width="2" stroke-dasharray="11 11"/>
<path d="M985.52 674H972.11L959.87 656.72L954.83 660.77V674H943.22V614.69H954.83C954.83 633.95 954.77 644.39 954.65 646.01C954.53 647.63 954.38 649.22 954.2 650.78H954.38C956.54 647.84 958.25 645.68 959.51 644.3L971.39 631.34H984.53L967.61 649.88L985.52 674ZM1007.71 674.72C1001.59 674.72 996.642 672.8 992.862 668.96C989.082 665.12 987.192 659.66 987.192 652.58C987.192 647.84 988.032 643.85 989.712 640.61C991.392 637.31 993.762 634.82 996.822 633.14C999.942 631.4 1003.66 630.53 1007.98 630.53C1012 630.53 1015.54 631.4 1018.6 633.14C1021.72 634.82 1024.15 637.31 1025.89 640.61C1027.63 643.85 1028.5 647.84 1028.5 652.58C1028.5 659.78 1026.64 665.27 1022.92 669.05C1019.26 672.83 1014.19 674.72 1007.71 674.72ZM1007.89 665.45C1009.93 665.45 1011.58 664.97 1012.84 664.01C1014.16 662.99 1015.12 661.55 1015.72 659.69C1016.32 657.77 1016.62 655.4 1016.62 652.58C1016.62 649.76 1016.32 647.42 1015.72 645.56C1015.12 643.7 1014.16 642.32 1012.84 641.42C1011.58 640.46 1009.9 639.98 1007.8 639.98C1004.74 639.98 1002.52 641.03 1001.14 643.13C999.762 645.23 999.072 648.38 999.072 652.58C999.072 655.4 999.372 657.77 999.972 659.69C1000.57 661.55 1001.5 662.99 1002.76 664.01C1004.08 664.97 1005.79 665.45 1007.89 665.45ZM1047.91 674H1036.3V631.34H1045.12L1046.83 638.54H1047.37C1048.21 637.1 1049.26 635.78 1050.52 634.58C1051.78 633.32 1053.22 632.33 1054.84 631.61C1056.46 630.89 1058.2 630.53 1060.06 630.53C1061.74 630.53 1063.06 630.65 1064.02 630.89L1063.12 641.78C1062.4 641.54 1061.26 641.42 1059.7 641.42C1056.4 641.42 1053.7 642.23 1051.6 643.85C1049.14 645.71 1047.91 648.53 1047.91 652.31V674ZM1084.54 674.72C1078.84 674.72 1074.97 672.89 1072.93 669.23C1071.79 667.19 1071.22 664.34 1071.22 660.68V640.07H1065.64V635.21L1072.03 631.25L1075.45 622.25H1082.83V631.34H1094.8V640.07H1082.83V660.68C1082.83 663.86 1084.54 665.45 1087.96 665.45C1090 665.45 1092.43 665.03 1095.25 664.19V672.83C1092.31 674.09 1088.74 674.72 1084.54 674.72ZM1121.39 674.72C1117.13 674.72 1113.35 673.94 1110.05 672.38C1106.75 670.82 1104.17 668.42 1102.31 665.18C1100.45 661.94 1099.52 657.86 1099.52 652.94C1099.52 647.96 1100.36 643.82 1102.04 640.52C1103.72 637.22 1106.06 634.73 1109.06 633.05C1112.12 631.37 1115.66 630.53 1119.68 630.53C1123.64 630.53 1127.03 631.31 1129.85 632.87C1132.73 634.37 1134.95 636.56 1136.51 639.44C1138.07 642.26 1138.85 645.77 1138.85 649.97V655.55H1111.31C1111.43 658.85 1112.42 661.43 1114.28 663.29C1116.14 665.15 1118.69 666.08 1121.93 666.08C1126.91 666.08 1131.74 664.97 1136.42 662.75V671.75C1132.34 673.73 1127.33 674.72 1121.39 674.72ZM1127.87 647.81C1127.87 646.07 1127.57 644.54 1126.97 643.22C1126.37 641.9 1125.47 640.85 1124.27 640.07C1123.13 639.23 1121.63 638.81 1119.77 638.81C1114.79 638.81 1112.06 641.81 1111.58 647.81H1127.87ZM1165.77 674.72C1161.51 674.72 1157.73 673.94 1154.43 672.38C1151.13 670.82 1148.55 668.42 1146.69 665.18C1144.83 661.94 1143.9 657.86 1143.9 652.94C1143.9 647.96 1144.74 643.82 1146.42 640.52C1148.1 637.22 1150.44 634.73 1153.44 633.05C1156.5 631.37 1160.04 630.53 1164.06 630.53C1168.02 630.53 1171.41 631.31 1174.23 632.87C1177.11 634.37 1179.33 636.56 1180.89 639.44C1182.45 642.26 1183.23 645.77 1183.23 649.97V655.55H1155.69C1155.81 658.85 1156.8 661.43 1158.66 663.29C1160.52 665.15 1163.07 666.08 1166.31 666.08C1171.29 666.08 1176.12 664.97 1180.8 662.75V671.75C1176.72 673.73 1171.71 674.72 1165.77 674.72ZM1172.25 647.81C1172.25 646.07 1171.95 644.54 1171.35 643.22C1170.75 641.9 1169.85 640.85 1168.65 640.07C1167.51 639.23 1166.01 638.81 1164.15 638.81C1159.17 638.81 1156.44 641.81 1155.96 647.81H1172.25Z" fill="white"/>
<path d="M1256.23 670.051L1255.88 673.567C1255.6 676.379 1255.07 679.181 1254.28 681.972C1253.51 684.785 1252.7 687.331 1251.85 689.611C1251.02 691.891 1250.35 693.68 1249.84 694.98H1241.02C1241.34 693.723 1241.77 691.965 1242.33 689.707C1242.88 687.469 1243.4 684.955 1243.89 682.164C1244.38 679.373 1244.69 676.528 1244.82 673.631L1244.98 670.051H1256.23Z" fill="white"/>
<rect x="1309" y="571" width="340" height="145" rx="24" stroke="#FF6F6F" stroke-width="2" stroke-dasharray="11 11"/>
<path d="M1342.77 661.874L1342.8 645.542H1344.78L1360.51 626.909H1376.14L1355.01 651.582H1351.78L1342.77 661.874ZM1330.43 676V610.545H1344.05V676H1330.43ZM1361.12 676L1346.67 654.619L1355.75 644.999L1377.06 676H1361.12ZM1402.97 676.959C1398.01 676.959 1393.72 675.904 1390.09 673.795C1386.49 671.664 1383.71 668.702 1381.75 664.91C1379.79 661.096 1378.81 656.675 1378.81 651.646C1378.81 646.575 1379.79 642.143 1381.75 638.351C1383.71 634.537 1386.49 631.575 1390.09 629.466C1393.72 627.335 1398.01 626.27 1402.97 626.27C1407.94 626.27 1412.22 627.335 1415.82 629.466C1419.45 631.575 1422.24 634.537 1424.2 638.351C1426.16 642.143 1427.14 646.575 1427.14 651.646C1427.14 656.675 1426.16 661.096 1424.2 664.91C1422.24 668.702 1419.45 671.664 1415.82 673.795C1412.22 675.904 1407.94 676.959 1402.97 676.959ZM1403.04 666.412C1405.3 666.412 1407.18 665.773 1408.7 664.494C1410.21 663.195 1411.35 661.426 1412.12 659.189C1412.9 656.952 1413.3 654.406 1413.3 651.55C1413.3 648.695 1412.9 646.149 1412.12 643.912C1411.35 641.675 1410.21 639.906 1408.7 638.607C1407.18 637.307 1405.3 636.657 1403.04 636.657C1400.76 636.657 1398.84 637.307 1397.29 638.607C1395.75 639.906 1394.59 641.675 1393.8 643.912C1393.04 646.149 1392.65 648.695 1392.65 651.55C1392.65 654.406 1393.04 656.952 1393.8 659.189C1394.59 661.426 1395.75 663.195 1397.29 664.494C1398.84 665.773 1400.76 666.412 1403.04 666.412ZM1435.99 676V626.909H1449.19V635.474H1449.7C1450.6 632.428 1452.1 630.126 1454.21 628.571C1456.32 626.994 1458.75 626.206 1461.49 626.206C1462.18 626.206 1462.91 626.249 1463.7 626.334C1464.49 626.419 1465.18 626.536 1465.78 626.685V638.766C1465.14 638.575 1464.25 638.404 1463.12 638.255C1461.99 638.106 1460.96 638.031 1460.02 638.031C1458.02 638.031 1456.23 638.468 1454.65 639.342C1453.1 640.194 1451.86 641.387 1450.95 642.921C1450.05 644.455 1449.6 646.224 1449.6 648.227V676H1435.99ZM1501.39 626.909V637.136H1471.83V626.909H1501.39ZM1478.54 615.148H1492.15V660.915C1492.15 662.172 1492.34 663.152 1492.73 663.855C1493.11 664.537 1493.64 665.016 1494.33 665.293C1495.03 665.57 1495.84 665.709 1496.75 665.709C1497.39 665.709 1498.03 665.656 1498.67 665.549C1499.31 665.421 1499.8 665.325 1500.14 665.261L1502.28 675.393C1501.6 675.606 1500.64 675.851 1499.41 676.128C1498.17 676.426 1496.67 676.607 1494.9 676.671C1491.62 676.799 1488.74 676.362 1486.27 675.361C1483.82 674.359 1481.91 672.804 1480.55 670.695C1479.19 668.585 1478.52 665.922 1478.54 662.705V615.148ZM1532.1 676.959C1527.05 676.959 1522.71 675.936 1519.06 673.891C1515.44 671.824 1512.65 668.905 1510.69 665.134C1508.73 661.341 1507.75 656.856 1507.75 651.678C1507.75 646.629 1508.73 642.197 1510.69 638.383C1512.65 634.569 1515.41 631.597 1518.97 629.466C1522.55 627.335 1526.74 626.27 1531.56 626.27C1534.8 626.27 1537.81 626.792 1540.6 627.836C1543.42 628.859 1545.87 630.403 1547.95 632.47C1550.06 634.537 1551.7 637.136 1552.88 640.268C1554.05 643.379 1554.63 647.023 1554.63 651.199V654.938H1513.18V646.501H1541.82C1541.82 644.54 1541.39 642.804 1540.54 641.291C1539.69 639.778 1538.5 638.596 1536.99 637.744C1535.5 636.87 1533.76 636.433 1531.78 636.433C1529.72 636.433 1527.88 636.913 1526.29 637.871C1524.71 638.809 1523.47 640.077 1522.58 641.675C1521.68 643.251 1521.23 645.009 1521.2 646.948V654.97C1521.2 657.399 1521.65 659.498 1522.55 661.266C1523.46 663.035 1524.75 664.398 1526.41 665.357C1528.08 666.316 1530.05 666.795 1532.33 666.795C1533.84 666.795 1535.22 666.582 1536.48 666.156C1537.74 665.73 1538.81 665.091 1539.71 664.239C1540.6 663.386 1541.29 662.342 1541.75 661.107L1554.35 661.938C1553.71 664.963 1552.4 667.605 1550.42 669.864C1548.46 672.101 1545.92 673.848 1542.81 675.105C1539.72 676.341 1536.15 676.959 1532.1 676.959ZM1606.72 676.959C1601.67 676.959 1597.33 675.936 1593.68 673.891C1590.06 671.824 1587.27 668.905 1585.31 665.134C1583.35 661.341 1582.37 656.856 1582.37 651.678C1582.37 646.629 1583.35 642.197 1585.31 638.383C1587.27 634.569 1590.03 631.597 1593.59 629.466C1597.17 627.335 1601.36 626.27 1606.18 626.27C1609.42 626.27 1612.43 626.792 1615.22 627.836C1618.04 628.859 1620.49 630.403 1622.57 632.47C1624.68 634.537 1626.32 637.136 1627.5 640.268C1628.67 643.379 1629.25 647.023 1629.25 651.199V654.938H1587.8V646.501H1616.44C1616.44 644.54 1616.01 642.804 1615.16 641.291C1614.31 639.778 1613.12 638.596 1611.61 637.744C1610.12 636.87 1608.38 636.433 1606.4 636.433C1604.34 636.433 1602.5 636.913 1600.9 637.871C1599.33 638.809 1598.09 640.077 1597.2 641.675C1596.3 643.251 1595.84 645.009 1595.82 646.948V654.97C1595.82 657.399 1596.27 659.498 1597.17 661.266C1598.08 663.035 1599.37 664.398 1601.03 665.357C1602.69 666.316 1604.67 666.795 1606.95 666.795C1608.46 666.795 1609.84 666.582 1611.1 666.156C1612.36 665.73 1613.43 665.091 1614.33 664.239C1615.22 663.386 1615.9 662.342 1616.37 661.107L1628.97 661.938C1628.33 664.963 1627.02 667.605 1625.03 669.864C1623.07 672.101 1620.54 673.848 1617.43 675.105C1614.34 676.341 1610.77 676.959 1606.72 676.959Z" fill="white"/>
</svg>
