<svg width="1892" height="796" viewBox="0 0 1892 796" fill="none" xmlns="http://www.w3.org/2000/svg">
<rect width="1892" height="796" fill="#1E1E1E"/>
<path d="M1272 294C1272 294.955 1271.62 295.87 1270.95 296.546C1270.27 297.221 1269.35 297.6 1268.4 297.6H1245.6V320.4C1245.6 321.355 1245.22 322.27 1244.55 322.946C1243.87 323.621 1242.95 324 1242 324C1241.05 324 1240.13 323.621 1239.45 322.946C1238.78 322.27 1238.4 321.355 1238.4 320.4V297.6H1215.6C1214.65 297.6 1213.73 297.221 1213.05 296.546C1212.38 295.87 1212 294.955 1212 294C1212 293.045 1212.38 292.13 1213.05 291.454C1213.73 290.779 1214.65 290.4 1215.6 290.4H1238.4V267.6C1238.4 266.645 1238.78 265.73 1239.45 265.054C1240.13 264.379 1241.05 264 1242 264C1242.95 264 1243.87 264.379 1244.55 265.054C1245.22 265.73 1245.6 266.645 1245.6 267.6V290.4H1268.4C1269.35 290.4 1270.27 290.779 1270.95 291.454C1271.62 292.13 1272 293.045 1272 294Z" fill="white"/>
<path d="M1272 503C1272 503.955 1271.62 504.87 1270.95 505.546C1270.27 506.221 1269.35 506.6 1268.4 506.6H1245.6V529.4C1245.6 530.355 1245.22 531.27 1244.55 531.946C1243.87 532.621 1242.95 533 1242 533C1241.05 533 1240.13 532.621 1239.45 531.946C1238.78 531.27 1238.4 530.355 1238.4 529.4V506.6H1215.6C1214.65 506.6 1213.73 506.221 1213.05 505.546C1212.38 504.87 1212 503.955 1212 503C1212 502.045 1212.38 501.13 1213.05 500.454C1213.73 499.779 1214.65 499.4 1215.6 499.4H1238.4V476.6C1238.4 475.645 1238.78 474.73 1239.45 474.054C1240.13 473.379 1241.05 473 1242 473C1242.95 473 1243.87 473.379 1244.55 474.054C1245.22 474.73 1245.6 475.645 1245.6 476.6V499.4H1268.4C1269.35 499.4 1270.27 499.779 1270.95 500.454C1271.62 501.13 1272 502.045 1272 503Z" fill="white"/>
<path d="M420.28 340H405.04V278.2H393.04V340H377.8L361 328.24C355 336.08 347.12 340 337.36 340H329.44C321.28 340 314.28 337.12 308.44 331.36C302.68 325.52 299.8 318.48 299.8 310.24V287.8H315.04V311.44C315.04 315.44 316.44 319.08 319.24 322.36C322.12 325.56 325.52 327.16 329.44 327.16H337.36C341.36 327.16 344.76 325.56 347.56 322.36C350.36 319.08 351.76 315.44 351.76 311.44V302.08C351.76 300.32 351.16 298.64 349.96 297.04C348.76 295.44 347.28 294.64 345.52 294.64H344.32C343.12 294.64 342.08 295.28 341.2 296.56C340.32 297.84 339.88 299.08 339.88 300.28V311.08H324.64V301.48C324.64 296.04 326.56 291.4 330.4 287.56C334.24 283.72 339.28 281.8 345.52 281.8C351.44 281.8 356.48 283.92 360.64 288.16C364.88 292.32 367 297.36 367 303.28C367 309.84 366.84 314 366.52 315.76L377.8 323.8V278.2H293.8V265.36H427.48V278.2H420.28V340ZM454.09 329.56H452.65C447.05 329.56 442.25 327.6 438.25 323.68C434.25 319.68 432.25 314.88 432.25 309.28V278.2H425.05V265.36H472.81V278.2H447.13V280.6L463.57 283.96C468.53 285 472.49 287.36 475.45 291.04C478.49 294.64 480.01 298.84 480.01 303.64C480.01 310.84 477.45 316.96 472.33 322C467.29 327.04 461.21 329.56 454.09 329.56ZM454.09 316.6C457.13 316.6 459.73 315.36 461.89 312.88C464.05 310.32 465.13 307.24 465.13 303.64C465.13 301.64 464.61 300.04 463.57 298.84C462.53 297.56 461.45 296.8 460.33 296.56L447.13 293.92V309.28C447.13 311.28 447.69 313 448.81 314.44C449.93 315.88 451.21 316.6 452.65 316.6H454.09ZM537.122 352.24L480.002 334.96V321.16L505.322 316.72C511.482 315.68 516.402 314.36 520.082 312.76C523.762 311.16 525.602 308.88 525.602 305.92C525.602 303.92 524.802 302.36 523.202 301.24C521.682 300.04 519.642 299.12 517.082 298.48C516.522 302.56 514.562 306.08 511.202 309.04C507.202 312.64 501.922 314.44 495.362 314.44C490.402 314.44 486.202 312.84 482.762 309.64C479.322 306.44 477.602 302.6 477.602 298.12V278.2H470.402V265.36H546.842V278.2H492.842V280.48L520.802 286.12C526.882 287.4 531.722 290.12 535.322 294.28C539.002 298.36 540.842 302.24 540.842 305.92C540.842 313.44 536.282 319.36 527.162 323.68C521.002 326.56 514.522 328.52 507.722 329.56H507.482L540.842 339.76L537.122 352.24ZM496.922 301.6C500.842 301.6 502.802 300.32 502.802 297.76C502.802 296.4 501.922 295.52 500.162 295.12L498.722 294.76L493.682 293.8V298.96C493.682 300.72 494.762 301.6 496.922 301.6ZM566.904 340H551.664V278.2H544.464V265.36H574.104V278.2H566.904V340Z" fill="white"/>
<path d="M653.803 286C649.661 286 646.303 289.358 646.303 293.5C646.303 297.642 649.661 301 653.803 301V286ZM859.107 298.803C862.036 295.874 862.036 291.126 859.107 288.197L811.377 240.467C808.448 237.538 803.699 237.538 800.77 240.467C797.842 243.396 797.842 248.145 800.77 251.074L843.197 293.5L800.77 335.926C797.842 338.855 797.842 343.604 800.77 346.533C803.699 349.462 808.448 349.462 811.377 346.533L859.107 298.803ZM653.803 301H853.803V286H653.803V301Z" fill="white"/>
<path d="M1085.28 331H1070.04V269.2H1058.04V331H1042.8L1026 319.24C1020 327.08 1012.12 331 1002.36 331H994.44C986.28 331 979.28 328.12 973.44 322.36C967.68 316.52 964.8 309.48 964.8 301.24V278.8H980.04V302.44C980.04 306.44 981.44 310.08 984.24 313.36C987.12 316.56 990.52 318.16 994.44 318.16H1002.36C1006.36 318.16 1009.76 316.56 1012.56 313.36C1015.36 310.08 1016.76 306.44 1016.76 302.44V293.08C1016.76 291.32 1016.16 289.64 1014.96 288.04C1013.76 286.44 1012.28 285.64 1010.52 285.64H1009.32C1008.12 285.64 1007.08 286.28 1006.2 287.56C1005.32 288.84 1004.88 290.08 1004.88 291.28V302.08H989.64V292.48C989.64 287.04 991.56 282.4 995.4 278.56C999.24 274.72 1004.28 272.8 1010.52 272.8C1016.44 272.8 1021.48 274.92 1025.64 279.16C1029.88 283.32 1032 288.36 1032 294.28C1032 300.84 1031.84 305 1031.52 306.76L1042.8 314.8V269.2H958.8V256.36H1092.48V269.2H1085.28V331ZM1122.93 331H1121.13C1114.57 331 1108.93 328.68 1104.21 324.04C1099.57 319.4 1097.25 313.8 1097.25 307.24V269.2H1090.05V256.36H1159.53V269.2H1112.49V272.8L1134.45 277.36C1140.21 278.56 1144.81 281.28 1148.25 285.52C1151.77 289.76 1153.53 294.68 1153.53 300.28C1153.53 308.76 1150.53 316 1144.53 322C1138.53 328 1131.33 331 1122.93 331ZM1122.93 318.16C1127.17 318.16 1130.77 316.4 1133.73 312.88C1136.77 309.36 1138.29 305.16 1138.29 300.28C1138.29 297.4 1137.53 295.04 1136.01 293.2C1134.49 291.28 1132.81 290.12 1130.97 289.72L1112.49 286V307.24C1112.49 310.2 1113.33 312.76 1115.01 314.92C1116.69 317.08 1118.73 318.16 1121.13 318.16H1122.93ZM1140.02 362.44L1111.58 346L1118.3 334.6L1146.74 351.04L1140.02 362.44Z" fill="white"/>
<path d="M1036.68 540H1019.64L1014.24 522.36H987.12L981.84 540H964.8L991.08 465.36H1010.28L1036.68 540ZM1010.52 509.04C1004.68 490.48 1001.44 479.76 1000.8 476.88C1000.4 478.24 999.92 479.96 999.36 482.04C998.8 484.12 998.24 486.08 997.68 487.92C997.12 489.68 996.72 490.96 996.48 491.76L991.2 509.04H1010.52ZM1065.49 540.96C1047.81 540.96 1038.97 531.28 1038.97 511.92C1038.97 504.96 1040.13 499.28 1042.45 494.88C1044.85 490.48 1048.13 487.24 1052.29 485.16C1056.53 483.08 1061.41 482.04 1066.93 482.04C1073.41 482.04 1079.29 483.32 1084.57 485.88L1080.01 497.88C1074.65 495.72 1070.29 494.64 1066.93 494.64C1064.21 494.64 1061.93 495.28 1060.09 496.56C1058.33 497.76 1057.01 499.64 1056.13 502.2C1055.25 504.76 1054.81 507.96 1054.81 511.8C1054.81 522.92 1058.85 528.48 1066.93 528.48C1072.45 528.48 1077.73 526.84 1082.77 523.56V536.76C1080.45 538.28 1077.97 539.36 1075.33 540C1072.77 540.64 1069.49 540.96 1065.49 540.96ZM1145.99 540H1130.51V506.76C1130.51 498.6 1127.47 494.52 1121.39 494.52C1115.47 494.52 1111.75 497.36 1110.23 503.04C1109.43 505.84 1109.03 509.24 1109.03 513.24V540H1093.55V460.92H1109.03C1109.03 474.44 1108.95 482.48 1108.79 485.04C1108.63 487.6 1108.47 489.4 1108.31 490.44H1109.15C1110.35 488.44 1111.79 486.84 1113.47 485.64C1115.15 484.44 1116.99 483.56 1118.99 483C1121.07 482.36 1123.27 482.04 1125.59 482.04C1129.75 482.04 1133.35 482.76 1136.39 484.2C1139.43 485.64 1141.79 487.92 1143.47 491.04C1145.15 494.08 1145.99 498.04 1145.99 502.92V540Z" fill="white"/>
<path d="M1390.52 343.24L1333.4 325.96V312.16L1358.72 307.72C1364.88 306.68 1369.8 305.36 1373.48 303.76C1377.16 302.16 1379 299.88 1379 296.92C1379 294.92 1378.2 293.36 1376.6 292.24C1375.08 291.04 1373.04 290.12 1370.48 289.48C1369.92 293.56 1367.96 297.08 1364.6 300.04C1360.6 303.64 1355.32 305.44 1348.76 305.44C1343.8 305.44 1339.6 303.84 1336.16 300.64C1332.72 297.44 1331 293.6 1331 289.12V269.2H1323.8V256.36H1400.24V269.2H1346.24V271.48L1374.2 277.12C1380.28 278.4 1385.12 281.12 1388.72 285.28C1392.4 289.36 1394.24 293.24 1394.24 296.92C1394.24 304.44 1389.68 310.36 1380.56 314.68C1374.4 317.56 1367.92 319.52 1361.12 320.56H1360.88L1394.24 330.76L1390.52 343.24ZM1350.32 292.6C1354.24 292.6 1356.2 291.32 1356.2 288.76C1356.2 287.4 1355.32 286.52 1353.56 286.12L1352.12 285.76L1347.08 284.8V289.96C1347.08 291.72 1348.16 292.6 1350.32 292.6ZM1420.3 331H1405.06V269.2H1397.86V256.36H1427.5V269.2H1420.3V331Z" fill="white"/>
<path d="M1317 540.96C1299.32 540.96 1290.48 531.28 1290.48 511.92C1290.48 504.96 1291.64 499.28 1293.96 494.88C1296.36 490.48 1299.64 487.24 1303.8 485.16C1308.04 483.08 1312.92 482.04 1318.44 482.04C1324.92 482.04 1330.8 483.32 1336.08 485.88L1331.52 497.88C1326.16 495.72 1321.8 494.64 1318.44 494.64C1315.72 494.64 1313.44 495.28 1311.6 496.56C1309.84 497.76 1308.52 499.64 1307.64 502.2C1306.76 504.76 1306.32 507.96 1306.32 511.8C1306.32 522.92 1310.36 528.48 1318.44 528.48C1323.96 528.48 1329.24 526.84 1334.28 523.56V536.76C1331.96 538.28 1329.48 539.36 1326.84 540C1324.28 540.64 1321 540.96 1317 540.96ZM1397.49 540H1382.01V506.76C1382.01 498.6 1378.97 494.52 1372.89 494.52C1366.97 494.52 1363.25 497.36 1361.73 503.04C1360.93 505.84 1360.53 509.24 1360.53 513.24V540H1345.05V460.92H1360.53C1360.53 474.44 1360.45 482.48 1360.29 485.04C1360.13 487.6 1359.97 489.4 1359.81 490.44H1360.65C1361.85 488.44 1363.29 486.84 1364.97 485.64C1366.65 484.44 1368.49 483.56 1370.49 483C1372.57 482.36 1374.77 482.04 1377.09 482.04C1381.25 482.04 1384.85 482.76 1387.89 484.2C1390.93 485.64 1393.29 487.92 1394.97 491.04C1396.65 494.08 1397.49 498.04 1397.49 502.92V540ZM1424.83 540.96C1421.47 540.96 1418.43 540.32 1415.71 539.04C1413.07 537.76 1410.99 535.8 1409.47 533.16C1407.95 530.52 1407.19 527.12 1407.19 522.96C1407.19 516.96 1409.31 512.52 1413.55 509.64C1417.79 506.76 1424.15 505.2 1432.63 504.96L1442.47 504.6V502.08C1442.47 496.32 1439.51 493.44 1433.59 493.44C1429.11 493.44 1423.79 494.84 1417.63 497.64L1412.47 487.08C1419.03 483.64 1426.27 481.92 1434.19 481.92C1450.03 481.92 1457.95 488.64 1457.95 502.08V540H1447.03L1444.03 532.32H1443.67C1440.47 536.32 1436.87 538.92 1432.87 540.12C1430.63 540.68 1427.95 540.96 1424.83 540.96ZM1430.59 529.68C1433.95 529.68 1436.75 528.72 1438.99 526.8C1441.31 524.8 1442.47 521.96 1442.47 518.28V513.6L1436.47 513.84C1431.43 514 1427.95 514.92 1426.03 516.6C1424.11 518.2 1423.15 520.36 1423.15 523.08C1423.15 527.48 1425.63 529.68 1430.59 529.68Z" fill="white"/>
</svg>
